<?xml version="1.0" encoding="UTF-8" standalone="no"?>
<!DOCTYPE svg PUBLIC "-//W3C//DTD SVG 1.1//EN"
 "http://www.w3.org/Graphics/SVG/1.1/DTD/svg11.dtd">
<!-- Generated by graphviz version 2.50.0 (0)
 -->
<!-- Pages: 1 -->
<svg width="1412pt" height="766pt"
 viewBox="0.00 0.00 1412.00 766.00" xmlns="http://www.w3.org/2000/svg" xmlns:xlink="http://www.w3.org/1999/xlink">
<g id="graph0" class="graph" transform="scale(1 1) rotate(0) translate(4 762)">
<polygon fill="white" stroke="transparent" points="-4,4 -4,-762 1408,-762 1408,4 -4,4"/>
<!-- 1 -->
<g id="node1" class="node">
<title>1</title>
<polygon fill="#f37726" stroke="transparent" points="573,-471 354,-471 354,-333 573,-333 573,-471"/>
<text text-anchor="start" x="445" y="-461.2" font-family="Roboto Light" font-size="11.00"> </text>
<text text-anchor="start" x="449" y="-461.2" font-family="Roboto Light" font-weight="bold" font-size="11.00">1 main</text>
<text text-anchor="start" x="405" y="-450.2" font-family="Roboto Light" font-style="italic" font-size="11.00">1 Main controler (.ipynb)</text>
<text text-anchor="start" x="373" y="-436.2" font-family="Roboto Light" font-size="11.00">Used for invoking individual modules</text>
<text text-anchor="start" x="356.5" y="-422.2" font-family="Roboto Light" font-size="11.00">Extracting (E), Transforming (T), Loading (L)</text>
<text text-anchor="start" x="435" y="-409.2" font-family="Roboto Light" font-weight="bold" font-size="11.00">List of DFs:</text>
<text text-anchor="start" x="441.5" y="-394.2" font-family="Roboto Light" font-size="11.00">gpdf_gku</text>
<text text-anchor="start" x="445.5" y="-380.2" font-family="Roboto Light" font-size="11.00">df_dmo</text>
<text text-anchor="start" x="432.5" y="-366.2" font-family="Roboto Light" font-size="11.00">df_members</text>
<text text-anchor="start" x="415.5" y="-352.2" font-family="Roboto Light" font-size="11.00">df_dmo_boundaries</text>
<text text-anchor="start" x="391" y="-338.2" font-family="Roboto Light" font-size="11.00">df_dmo_muns_w_susr_codes</text>
<polygon fill="none" stroke="#616262" points="354,-333 354,-471 573,-471 573,-333 354,-333"/>
</g>
<!-- 2 -->
<g id="node2" class="node">
<title>2</title>
<polygon fill="#ffd846" stroke="transparent" points="931.5,-758 846.5,-758 846.5,-704 931.5,-704 931.5,-758"/>
<text text-anchor="start" x="862" y="-748.2" font-family="Roboto Light" font-size="11.00"> </text>
<text text-anchor="start" x="866" y="-748.2" font-family="Roboto Light" font-weight="bold" font-size="11.00">2 call_wfs</text>
<text text-anchor="start" x="859" y="-737.2" font-family="Roboto Light" font-style="italic" font-size="11.00">module (.py)</text>
<text text-anchor="start" x="866.5" y="-723.2" font-family="Roboto Light" font-size="11.00">Call WFS</text>
<text text-anchor="start" x="849" y="-709.2" font-family="Roboto Light" font-size="11.00">Retrieve as gpdf</text>
<polygon fill="none" stroke="#3671a1" points="846.5,-704 846.5,-758 931.5,-758 931.5,-704 846.5,-704"/>
</g>
<!-- 1&#45;&gt;2 -->
<g id="edge2" class="edge">
<title>1:main&#45;&gt;2:call_wfs</title>
<path fill="none" stroke="black" stroke-dasharray="5,2" d="M573,-458C678.23,-458 583.93,-607.57 663,-677 725.23,-731.64 760.82,-726.26 841.61,-726.01"/>
<polygon fill="black" stroke="black" points="842,-727.76 847,-726 842,-724.26 842,-727.76"/>
</g>
<!-- 3 -->
<g id="node3" class="node">
<title>3</title>
<polygon fill="#ffd846" stroke="transparent" points="1015,-601 763,-601 763,-547 1015,-547 1015,-601"/>
<text text-anchor="start" x="832.5" y="-591.2" font-family="Roboto Light" font-size="11.00"> </text>
<text text-anchor="start" x="836.5" y="-591.2" font-family="Roboto Light" font-weight="bold" font-size="11.00">3 get_dmo_base_data</text>
<text text-anchor="start" x="858.5" y="-580.2" font-family="Roboto Light" font-style="italic" font-size="11.00">module (.py)</text>
<text text-anchor="start" x="765" y="-566.2" font-family="Roboto Light" font-size="11.00">Scrapp pdf datalake of MINDOP&#39;s Registry of DMO</text>
<text text-anchor="start" x="835" y="-552.2" font-family="Roboto Light" font-size="11.00">Retrieve structured df</text>
<polygon fill="none" stroke="#3671a1" points="763,-547 763,-601 1015,-601 1015,-547 763,-547"/>
</g>
<!-- 1&#45;&gt;3 -->
<g id="edge3" class="edge">
<title>1:main&#45;&gt;3:scrap_pdfs</title>
<path fill="none" stroke="black" stroke-dasharray="5,2" d="M573,-458C656.14,-458 591.45,-579.65 663,-622 666.82,-624.26 668.71,-623.17 673,-622 716.04,-610.27 716.6,-572.14 757.77,-569.18"/>
<polygon fill="black" stroke="black" points="758.06,-570.92 763,-569 757.94,-567.43 758.06,-570.92"/>
</g>
<!-- 4 -->
<g id="node4" class="node">
<title>4</title>
<polygon fill="#ffd846" stroke="transparent" points="974.5,-413 803.5,-413 803.5,-345 974.5,-345 974.5,-413"/>
<text text-anchor="start" x="820.5" y="-403.2" font-family="Roboto Light" font-size="11.00"> </text>
<text text-anchor="start" x="824.5" y="-403.2" font-family="Roboto Light" font-weight="bold" font-size="11.00">4 get_dmo_base_members</text>
<text text-anchor="start" x="859" y="-392.2" font-family="Roboto Light" font-style="italic" font-size="11.00">module (.py)</text>
<text text-anchor="start" x="806" y="-378.2" font-family="Roboto Light" font-size="11.00">Extract member names from pdfs</text>
<text text-anchor="start" x="834" y="-364.2" font-family="Roboto Light" font-size="11.00">identify municipalities</text>
<text text-anchor="start" x="835.5" y="-350.2" font-family="Roboto Light" font-size="11.00">Retrieve structured df</text>
<polygon fill="none" stroke="#3671a1" points="803.5,-345 803.5,-413 974.5,-413 974.5,-345 803.5,-345"/>
</g>
<!-- 1&#45;&gt;4 -->
<g id="edge4" class="edge">
<title>1:main&#45;&gt;4:extract_members</title>
<path fill="none" stroke="black" stroke-dasharray="5,2" d="M573,-458C617.62,-458 630.17,-461.52 673,-449 734.24,-431.1 738.22,-383.69 798.76,-381.11"/>
<polygon fill="black" stroke="black" points="799.04,-382.85 804,-381 798.96,-379.35 799.04,-382.85"/>
</g>
<!-- 5 -->
<g id="node5" class="node">
<title>5</title>
<polygon fill="#ffd846" stroke="transparent" points="990,-221 788,-221 788,-167 990,-167 990,-221"/>
<text text-anchor="start" x="805.5" y="-211.2" font-family="Roboto Light" font-size="11.00"> </text>
<text text-anchor="start" x="809.5" y="-211.2" font-family="Roboto Light" font-weight="bold" font-size="11.00">5 clean_dmo_municipality_name</text>
<text text-anchor="start" x="858.5" y="-200.2" font-family="Roboto Light" font-style="italic" font-size="11.00">module (.py)</text>
<text text-anchor="start" x="790" y="-186.2" font-family="Roboto Light" font-size="11.00">Reformat and clean municipality names</text>
<text text-anchor="start" x="825.5" y="-172.2" font-family="Roboto Light" font-size="11.00">Retrieve df municipalities</text>
<polygon fill="none" stroke="#3671a1" points="788,-167 788,-221 990,-221 990,-167 788,-167"/>
</g>
<!-- 1&#45;&gt;5 -->
<g id="edge5" class="edge">
<title>1:df_members&#45;&gt;5:clean_municipality_name</title>
<path fill="none" stroke="black" stroke-dasharray="1,5" d="M573,-369C625.35,-369 622.88,-326.63 663,-293 716.98,-247.75 715.83,-191.92 782.64,-189.11"/>
<polygon fill="black" stroke="black" points="783.04,-190.85 788,-189 782.97,-187.35 783.04,-190.85"/>
<text text-anchor="middle" x="668" y="-298" font-family="Roboto Light" font-size="15.00">T</text>
</g>
<!-- 6 -->
<g id="node6" class="node">
<title>6</title>
<polygon fill="#ffd846" stroke="transparent" points="1004,-54 774,-54 774,0 1004,0 1004,-54"/>
<text text-anchor="start" x="808" y="-44.2" font-family="Roboto Light" font-size="11.00"> </text>
<text text-anchor="start" x="812" y="-44.2" font-family="Roboto Light" font-weight="bold" font-size="11.00">6 drop_duplicate_municipalities</text>
<text text-anchor="start" x="858.5" y="-33.2" font-family="Roboto Light" font-style="italic" font-size="11.00">module (.py)</text>
<text text-anchor="start" x="791.5" y="-19.2" font-family="Roboto Light" font-size="11.00">Drop duplicate municipalities in DMOs </text>
<text text-anchor="start" x="776" y="-5.2" font-family="Roboto Light" font-size="11.00">Retrieve unique df with unique municipalities </text>
<polygon fill="none" stroke="#3671a1" points="774,0 774,-54 1004,-54 1004,0 774,0"/>
</g>
<!-- 1&#45;&gt;6 -->
<g id="edge6" class="edge">
<title>1:df_dmo_boundaries&#45;&gt;6:ne</title>
<path fill="none" stroke="black" stroke-dasharray="1,5" d="M573,-355C650.37,-355 611.1,-263.37 663,-206 700.27,-164.8 713.65,-156.51 763,-131 864.71,-78.44 1079.4,-110.21 1007.64,-32.77"/>
<polygon fill="black" stroke="black" points="1008.73,-31.39 1004,-29 1006.21,-33.81 1008.73,-31.39"/>
<text text-anchor="middle" x="668" y="-211" font-family="Roboto Light" font-size="15.00">T</text>
</g>
<!-- 10 -->
<g id="node10" class="node">
<title>10</title>
<polygon fill="#ffffff" stroke="transparent" points="165,-457 0,-457 0,-347 165,-347 165,-457"/>
<text text-anchor="start" x="29.5" y="-447.2" font-family="Roboto Light" font-size="11.00"> </text>
<text text-anchor="start" x="33.5" y="-447.2" font-family="Roboto Light" font-weight="bold" font-size="11.00">10 db_schema_gtlab</text>
<text text-anchor="start" x="28.5" y="-436.2" font-family="Roboto Light" font-style="italic" font-size="11.00">database (PostGis DB)</text>
<text text-anchor="start" x="50" y="-423.2" font-family="Roboto Light" font-weight="bold" font-size="11.00">List of tables</text>
<text text-anchor="start" x="28" y="-408.2" font-family="Roboto Light" font-size="11.00">sk_municipalities_gku</text>
<text text-anchor="start" x="49" y="-394.2" font-family="Roboto Light" font-size="11.00">sk_dmos_raw</text>
<text text-anchor="start" x="25.5" y="-380.2" font-family="Roboto Light" font-size="11.00">sk_dmo_members_raw</text>
<text text-anchor="start" x="22" y="-366.2" font-family="Roboto Light" font-size="11.00">sk_dmo_boundaries_raw</text>
<text text-anchor="start" x="2.5" y="-352.2" font-family="Roboto Light" font-size="11.00">sk_dmo_boundaries_susr_codes</text>
<polygon fill="none" stroke="#336791" points="0,-347 0,-457 165,-457 165,-347 0,-347"/>
</g>
<!-- 1&#45;&gt;10 -->
<g id="edge16" class="edge">
<title>1:gpdf_gku&#45;&gt;10:sk_municipalities_gku</title>
<path fill="none" stroke="black" d="M354.5,-397C308.31,-397 300,-356.59 255,-367 213.32,-376.64 209.75,-408.38 170.03,-410.85"/>
<polygon fill="black" stroke="black" points="169.94,-409.1 165,-411 170.05,-412.6 169.94,-409.1"/>
<text text-anchor="middle" x="259.5" y="-372" font-family="Roboto Light" font-size="15.00">L</text>
</g>
<!-- 1&#45;&gt;10 -->
<g id="edge17" class="edge">
<title>1:df_dmo&#45;&gt;10:sk_dmos_raw</title>
<path fill="none" stroke="black" d="M354.5,-383C307.89,-383 308.99,-342.2 264,-330 260.14,-328.95 258.8,-328.74 255,-330 209.33,-345.13 214.43,-393.44 170.05,-396.81"/>
<polygon fill="black" stroke="black" points="169.93,-395.07 165,-397 170.06,-398.56 169.93,-395.07"/>
<text text-anchor="middle" x="259.5" y="-335" font-family="Roboto Light" font-size="15.00">L</text>
</g>
<!-- 1&#45;&gt;10 -->
<g id="edge18" class="edge">
<title>1:df_members&#45;&gt;10:sk_dmo_members_raw</title>
<path fill="none" stroke="black" d="M354.5,-369C299.12,-369 306.22,-272.95 255,-294 204.59,-314.71 220.18,-378.82 170.06,-382.81"/>
<polygon fill="black" stroke="black" points="169.93,-381.06 165,-383 170.06,-384.56 169.93,-381.06"/>
<text text-anchor="middle" x="259.5" y="-299" font-family="Roboto Light" font-size="15.00">L</text>
</g>
<!-- 1&#45;&gt;10 -->
<g id="edge19" class="edge">
<title>1:df_dmo_boundaries&#45;&gt;10:sk_dmo_boundaries_raw</title>
<path fill="none" stroke="black" d="M354.5,-355C292.12,-355 311.2,-228.92 255,-256 198.74,-283.11 227.52,-364.39 170.05,-368.81"/>
<polygon fill="black" stroke="black" points="169.93,-367.07 165,-369 170.06,-370.56 169.93,-367.07"/>
<text text-anchor="middle" x="259.5" y="-261" font-family="Roboto Light" font-size="15.00">L</text>
</g>
<!-- 1&#45;&gt;10 -->
<g id="edge20" class="edge">
<title>1:df_dmo_muns_w_susr_codes&#45;&gt;10:sk_dmo_boundaries_susr_codes</title>
<path fill="none" stroke="black" d="M354.5,-341C284.19,-341 316.88,-184.61 255,-218 192.51,-251.71 235.54,-349.84 170.32,-354.8"/>
<polygon fill="black" stroke="black" points="169.93,-353.07 165,-355 170.06,-356.57 169.93,-353.07"/>
<text text-anchor="middle" x="259.5" y="-223" font-family="Roboto Light" font-size="15.00">L</text>
</g>
<!-- 2&#45;&gt;1 -->
<g id="edge7" class="edge">
<title>2:retrieve_gpdf&#45;&gt;1:gpdf_gku</title>
<path fill="none" stroke="black" d="M847,-712C796.95,-712 797.33,-673.42 763,-637 757.58,-631.25 605.37,-428.75 577.16,-400.31"/>
<polygon fill="black" stroke="black" points="578,-398.74 573,-397 575.82,-401.48 578,-398.74"/>
<text text-anchor="middle" x="668" y="-519" font-family="Roboto Light" font-size="15.00">L</text>
</g>
<!-- 7 -->
<g id="node7" class="node">
<title>7</title>
<polygon fill="#c2f0ee" stroke="transparent" points="1300.5,-751 1245.5,-751 1245.5,-711 1300.5,-711 1300.5,-751"/>
<text text-anchor="start" x="1250" y="-741.2" font-family="Roboto Light" font-size="11.00"> </text>
<text text-anchor="start" x="1254" y="-741.2" font-family="Roboto Light" font-weight="bold" font-size="11.00">7 rpi.gov</text>
<text text-anchor="start" x="1262.5" y="-730.2" font-family="Roboto Light" font-style="italic" font-size="11.00">WFS</text>
<text text-anchor="start" x="1248" y="-716.2" font-family="Roboto Light" font-size="11.00">GKU WFS </text>
<polygon fill="none" stroke="#c2f0ee" points="1245.5,-711 1245.5,-751 1300.5,-751 1300.5,-711 1245.5,-711"/>
</g>
<!-- 2&#45;&gt;7 -->
<g id="edge12" class="edge">
<title>2&#45;&gt;7</title>
<path fill="none" stroke="black" stroke-dasharray="5,2" d="M931.61,-731C1008.5,-731 1171.27,-731 1240.15,-731"/>
<polygon fill="black" stroke="black" points="1240.34,-732.75 1245.34,-731 1240.34,-729.25 1240.34,-732.75"/>
<text text-anchor="middle" x="1109.5" y="-736" font-family="Roboto Light" font-size="15.00">E</text>
</g>
<!-- 3&#45;&gt;1 -->
<g id="edge8" class="edge">
<title>3:retrive_dmo_base_data&#45;&gt;1:df_dmo</title>
<path fill="none" stroke="black" d="M763,-555C650.87,-555 685.76,-388.33 578.23,-383.12"/>
<polygon fill="black" stroke="black" points="578.04,-381.37 573,-383 577.96,-384.87 578.04,-381.37"/>
<text text-anchor="middle" x="668" y="-484" font-family="Roboto Light" font-size="15.00">L</text>
</g>
<!-- 8 -->
<g id="node8" class="node">
<title>8</title>
<polygon fill="#c2f0ee" stroke="transparent" points="1319,-591 1227,-591 1227,-547 1319,-547 1319,-591"/>
<text text-anchor="start" x="1240.5" y="-581.2" font-family="Roboto Light" font-size="11.00"> </text>
<text text-anchor="start" x="1244.5" y="-581.2" font-family="Roboto Light" font-weight="bold" font-size="11.00">8 mindop.sk</text>
<text text-anchor="start" x="1240.5" y="-567.2" font-family="Roboto Light" font-size="11.00"> </text>
<text text-anchor="start" x="1244.5" y="-567.2" font-family="Roboto Light" font-style="italic" font-size="11.00">pdf datalake</text>
<text text-anchor="start" x="1229" y="-552.2" font-family="Roboto Light" font-size="11.00">Registry of DMOs</text>
<polygon fill="none" stroke="#c2f0ee" points="1227,-547 1227,-591 1319,-591 1319,-547 1227,-547"/>
</g>
<!-- 3&#45;&gt;8 -->
<g id="edge13" class="edge">
<title>3:scrap_pdfs&#45;&gt;8:mindop_pdf_lake</title>
<path fill="none" stroke="black" stroke-dasharray="5,2" d="M1015,-569C1107.47,-569 1131.88,-569 1221.83,-569"/>
<polygon fill="black" stroke="black" points="1222,-570.75 1227,-569 1222,-567.25 1222,-570.75"/>
<text text-anchor="middle" x="1109.5" y="-574" font-family="Roboto Light" font-size="15.00">E</text>
</g>
<!-- 4&#45;&gt;1 -->
<g id="edge9" class="edge">
<title>4:retrieve_members_df&#45;&gt;1:df_members</title>
<path fill="none" stroke="black" d="M804,-353C740.51,-353 725.17,-317.11 663,-330 622.15,-338.47 616.99,-366.45 578.4,-368.84"/>
<polygon fill="black" stroke="black" points="577.94,-367.1 573,-369 578.05,-370.6 577.94,-367.1"/>
<text text-anchor="middle" x="668" y="-335" font-family="Roboto Light" font-size="15.00">L</text>
</g>
<!-- 9 -->
<g id="node9" class="node">
<title>9</title>
<polygon fill="#c2f0ee" stroke="transparent" points="1342,-403 1204,-403 1204,-359 1342,-359 1342,-403"/>
<text text-anchor="start" x="1240.5" y="-393.2" font-family="Roboto Light" font-size="11.00"> </text>
<text text-anchor="start" x="1244.5" y="-393.2" font-family="Roboto Light" font-weight="bold" font-size="11.00">9 Local host</text>
<text text-anchor="start" x="1247" y="-379.2" font-family="Roboto Light" font-style="italic" font-size="11.00">pdf dumps</text>
<text text-anchor="start" x="1206" y="-364.2" font-family="Roboto Light" font-size="11.00">Each DMOs current extract</text>
<polygon fill="none" stroke="#c2f0ee" points="1204,-359 1204,-403 1342,-403 1342,-359 1204,-359"/>
</g>
<!-- 4&#45;&gt;9 -->
<g id="edge14" class="edge">
<title>4:extract_members&#45;&gt;9:pdf_dumps</title>
<path fill="none" stroke="black" stroke-dasharray="5,2" d="M975,-381C1075.09,-381 1101.36,-381 1198.99,-381"/>
<polygon fill="black" stroke="black" points="1199,-382.75 1204,-381 1199,-379.25 1199,-382.75"/>
<text text-anchor="middle" x="1109.5" y="-386" font-family="Roboto Light" font-size="15.00">E</text>
</g>
<!-- 5&#45;&gt;1 -->
<g id="edge10" class="edge">
<title>5:retrive_municipalties_raw&#45;&gt;1:df_dmo_boundaries</title>
<path fill="none" stroke="black" d="M788,-175C723.44,-175 712.35,-207.38 663,-249 617.14,-287.68 633.74,-351.15 578.23,-354.83"/>
<polygon fill="black" stroke="black" points="577.94,-353.09 573,-355 578.05,-356.59 577.94,-353.09"/>
<text text-anchor="middle" x="668" y="-254" font-family="Roboto Light" font-size="15.00">L</text>
</g>
<!-- 6&#45;&gt;1 -->
<g id="edge11" class="edge">
<title>6:retrive_unique_mun&#45;&gt;1:df_dmo_muns_w_susr_codes</title>
<path fill="none" stroke="black" d="M774,-8C683.76,-8 709.51,-100.67 663,-178 621.27,-247.39 654.27,-337.05 578.17,-340.87"/>
<polygon fill="black" stroke="black" points="577.96,-339.13 573,-341 578.04,-342.63 577.96,-339.13"/>
<text text-anchor="middle" x="658.49" y="-166.01" font-family="Roboto Light" font-size="15.00">L</text>
</g>
<!-- 8&#45;&gt;9 -->
<g id="edge15" class="edge">
<title>8:e&#45;&gt;9:e</title>
<path fill="none" stroke="black" d="M1353.26,-382.01C1425.09,-396.81 1400.56,-569 1320,-569"/>
<polygon fill="black" stroke="black" points="1348.15,-379.75 1343,-381 1347.8,-383.23 1348.15,-379.75"/>
<text text-anchor="middle" x="1399.5" y="-471.5" font-family="Roboto Light" font-size="15.00">L</text>
</g>
<!-- 10&#45;&gt;1 -->
</g>
</svg>
