<?xml version="1.0" encoding="UTF-8" standalone="no"?>
<!DOCTYPE svg PUBLIC "-//W3C//DTD SVG 1.1//EN"
 "http://www.w3.org/Graphics/SVG/1.1/DTD/svg11.dtd">
<!-- Generated by graphviz version 2.50.0 (0)
 -->
<!-- Pages: 1 -->
<svg width="1315pt" height="638pt"
 viewBox="0.00 0.00 1314.84 638.00" xmlns="http://www.w3.org/2000/svg" xmlns:xlink="http://www.w3.org/1999/xlink">
<g id="graph0" class="graph" transform="scale(1 1) rotate(0) translate(4 634)">
<polygon fill="white" stroke="transparent" points="-4,4 -4,-634 1310.84,-634 1310.84,4 -4,4"/>
<!-- 1&#45;&gt;2 -->
<g id="edge1" class="edge">
<title>1:main&#45;&gt;2:call_wfs</title>
<polygon fill="black" stroke="transparent" points="553.39,-515.49 555.6,-516 561.95,-517.49 572.02,-519.85 585.38,-522.98 601.61,-526.79 620.28,-531.16 640.97,-536.01 663.25,-541.23 686.71,-546.73 710.91,-552.4 735.43,-558.14 759.84,-563.86 783.73,-569.46 806.67,-574.83 828.23,-579.89 847.99,-584.52 865.52,-588.62 880.4,-592.11 892.21,-594.88 900.52,-596.83 900.52,-596.83 892.22,-594.86 880.42,-592.06 865.54,-588.53 848.02,-584.37 828.28,-579.68 806.73,-574.57 783.81,-569.13 759.94,-563.47 735.53,-557.68 711.03,-551.86 686.85,-546.13 663.41,-540.56 641.14,-535.28 620.46,-530.38 601.8,-525.95 585.59,-522.1 572.24,-518.93 562.17,-516.54 555.83,-515.04 553.61,-514.51 553.39,-515.49"/>
<polygon fill="black" stroke="black" points="900.23,-598.56 905.5,-598 901.04,-595.15 900.23,-598.56"/>
<text text-anchor="middle" x="876.13" y="-601.3" font-family="Roboto Light" font-size="11.00">IE1&#45;&gt;2</text>
</g>
<!-- 1&#45;&gt;3 -->
<g id="edge2" class="edge">
<title>1:main&#45;&gt;3:scrap_pdfs</title>
<polygon fill="black" stroke="transparent" points="553.61,-515.49 555.25,-515.11 559.97,-514.03 567.45,-512.31 577.38,-510.03 589.46,-507.26 603.37,-504.06 618.8,-500.52 635.44,-496.7 652.98,-492.68 671.11,-488.51 689.52,-484.29 707.89,-480.07 725.92,-475.93 743.29,-471.94 759.7,-468.18 774.84,-464.7 788.38,-461.59 800.03,-458.92 809.47,-456.75 816.39,-455.16 816.39,-455.16 809.46,-456.73 800.01,-458.86 788.36,-461.49 774.8,-464.55 759.65,-467.97 743.23,-471.67 725.84,-475.6 707.8,-479.67 689.41,-483.82 670.99,-487.97 652.84,-492.07 635.29,-496.03 618.63,-499.79 603.19,-503.27 589.27,-506.42 577.18,-509.14 567.24,-511.39 559.75,-513.08 555.03,-514.14 553.39,-514.51 553.61,-515.49"/>
<polygon fill="black" stroke="black" points="817.01,-456.82 821.5,-454 816.24,-453.4 817.01,-456.82"/>
<text text-anchor="middle" x="805.7" y="-463.46" font-family="Roboto Light" font-size="11.00">IE1&#45;&gt;3</text>
</g>
<!-- 1&#45;&gt;4 -->
<g id="edge3" class="edge">
<title>1:main&#45;&gt;4:extract_members</title>
<polygon fill="black" stroke="transparent" points="553.77,-515.42 555.71,-514.17 561.28,-510.59 570.11,-504.92 581.82,-497.39 596.05,-488.25 612.42,-477.72 630.56,-466.07 650.1,-453.51 670.66,-440.29 691.88,-426.65 713.38,-412.84 734.79,-399.08 755.73,-385.61 775.84,-372.69 794.74,-360.54 812.07,-349.4 827.44,-339.52 840.49,-331.14 850.85,-324.48 858.13,-319.8 858.13,-319.8 850.83,-324.46 840.46,-331.09 827.39,-339.44 811.99,-349.28 794.63,-360.36 775.7,-372.46 755.55,-385.33 734.57,-398.74 713.12,-412.44 691.58,-426.19 670.33,-439.77 649.73,-452.93 630.16,-465.44 611.98,-477.05 595.58,-487.52 581.33,-496.63 569.6,-504.12 560.75,-509.77 555.17,-513.34 553.23,-514.58 553.77,-515.42"/>
<polygon fill="black" stroke="black" points="859.23,-321.17 862.5,-317 857.35,-318.22 859.23,-321.17"/>
<text text-anchor="middle" x="841.1" y="-347.99" font-family="Roboto Light" font-size="11.00">IE1&#45;&gt;4</text>
</g>
<!-- 1&#45;&gt;5 -->
<g id="edge4" class="edge">
<title>1:main&#45;&gt;5:clean_municipality_name</title>
<path fill="none" stroke="black" stroke-dasharray="1,5" d="M553.5,-515C553.5,-515 811.02,-208.26 843.21,-169.92"/>
<polygon fill="black" stroke="black" points="844.63,-170.95 846.5,-166 841.94,-168.7 844.63,-170.95"/>
<text text-anchor="middle" x="833.55" y="-211.49" font-family="Roboto Light" font-size="11.00">IT1&#45;&gt;5</text>
</g>
<!-- 1&#45;&gt;6 -->
<g id="edge5" class="edge">
<title>1:main&#45;&gt;6:drop_duplicates</title>
<path fill="none" stroke="black" stroke-dasharray="1,5" d="M553.5,-515C553.5,-515 801.79,-76.27 829.92,-26.57"/>
<polygon fill="black" stroke="black" points="831.56,-27.21 832.5,-22 828.51,-25.49 831.56,-27.21"/>
<text text-anchor="middle" x="828.57" y="-69.05" font-family="Roboto Light" font-size="11.00">IT1&#45;&gt;6</text>
</g>
<!-- 1&#45;&gt;10 -->
<g id="edge15" class="edge">
<title>1:gpdf_gku&#45;&gt;10:sk_municipalities_gku</title>
<path fill="none" stroke="black" d="M331.5,-454C331.5,-454 197.87,-453.68 169.68,-453.61"/>
<polygon fill="black" stroke="black" points="169.5,-451.86 164.5,-453.6 169.5,-455.36 169.5,-451.86"/>
<text text-anchor="middle" x="243.58" y="-458.8" font-family="Roboto Light" font-size="15.00">L</text>
</g>
<!-- 1&#45;&gt;10 -->
<g id="edge16" class="edge">
<title>1:df_dmo&#45;&gt;10:sk_dmos_raw</title>
<path fill="none" stroke="black" d="M331.5,-440C331.5,-440 197.87,-439.68 169.68,-439.61"/>
<polygon fill="black" stroke="black" points="169.5,-437.86 164.5,-439.6 169.5,-441.36 169.5,-437.86"/>
</g>
<!-- 1&#45;&gt;10 -->
<g id="edge17" class="edge">
<title>1:df_members&#45;&gt;10:sk_dmo_members_raw</title>
<path fill="none" stroke="black" d="M331.5,-426C331.5,-426 197.87,-425.68 169.68,-425.61"/>
<polygon fill="black" stroke="black" points="169.5,-423.86 164.5,-425.6 169.5,-427.36 169.5,-423.86"/>
</g>
<!-- 1&#45;&gt;10 -->
<g id="edge18" class="edge">
<title>1:df_dmo_boundaries&#45;&gt;10:sk_dmo_boundaries_raw</title>
<path fill="none" stroke="black" d="M331.5,-412C331.5,-412 197.87,-411.68 169.68,-411.61"/>
<polygon fill="black" stroke="black" points="169.5,-409.86 164.5,-411.6 169.5,-413.36 169.5,-409.86"/>
</g>
<!-- 1&#45;&gt;10 -->
<g id="edge19" class="edge">
<title>1:df_dmo_muns_w_susr_codes&#45;&gt;10:sk_dmo_boundaries_susr_codes</title>
<path fill="none" stroke="black" d="M331.5,-398C331.5,-398 197.87,-397.68 169.68,-397.61"/>
<polygon fill="black" stroke="black" points="169.5,-395.86 164.5,-397.6 169.5,-399.36 169.5,-395.86"/>
</g>
<!-- 2&#45;&gt;1 -->
<g id="edge6" class="edge">
<title>2:retrieve_gpdf&#45;&gt;1:gpdf_gku</title>
<path fill="none" stroke="black" d="M905.5,-584C905.5,-584 599.98,-471.17 558.21,-455.74"/>
<polygon fill="black" stroke="black" points="558.8,-454.09 553.5,-454 557.58,-457.37 558.8,-454.09"/>
<text text-anchor="middle" x="715.29" y="-522.12" font-family="Roboto Light" font-size="11.00">L2&#45;&gt;1</text>
</g>
<!-- 2&#45;&gt;7 -->
<g id="edge11" class="edge">
<title>2&#45;&gt;7</title>
<path fill="none" stroke="black" stroke-dasharray="5,2" d="M989.31,-603C1047.18,-603 1149.14,-603 1201.47,-603"/>
<polygon fill="black" stroke="black" points="1201.68,-604.75 1206.68,-603 1201.68,-601.25 1201.68,-604.75"/>
<text text-anchor="middle" x="1082.92" y="-606.4" font-family="Roboto Light" font-size="12.00">E2&#45;&gt;7</text>
</g>
<!-- 3&#45;&gt;1 -->
<g id="edge7" class="edge">
<title>3:retrive_dmo_base_data&#45;&gt;1:df_dmo</title>
<path fill="none" stroke="black" d="M821.5,-440C821.5,-440 595.67,-440 558.61,-440"/>
<polygon fill="black" stroke="black" points="558.5,-438.25 553.5,-440 558.5,-441.75 558.5,-438.25"/>
<text text-anchor="middle" x="673.41" y="-443.2" font-family="Roboto Light" font-size="11.00">L3&#45;&gt;1</text>
</g>
<!-- 3&#45;&gt;8 -->
<g id="edge12" class="edge">
<title>3:scrap_pdfs&#45;&gt;8:mindop_pdf_lake</title>
<path fill="none" stroke="black" stroke-dasharray="5,2" d="M1071.5,-454C1071.5,-454 1168.21,-455.08 1191.64,-455.34"/>
<polygon fill="black" stroke="black" points="1191.68,-457.09 1196.7,-455.4 1191.72,-453.59 1191.68,-457.09"/>
<text text-anchor="middle" x="1119.01" y="-458.1" font-family="Roboto Light" font-size="12.00">E3&#45;&gt;8</text>
</g>
<!-- 4&#45;&gt;1 -->
<g id="edge8" class="edge">
<title>4:retrieve_members_df&#45;&gt;1:df_members</title>
<path fill="none" stroke="black" d="M862.5,-289C862.5,-289 597.67,-406.42 558.35,-423.85"/>
<polygon fill="black" stroke="black" points="557.36,-422.37 553.5,-426 558.78,-425.57 557.36,-422.37"/>
<text text-anchor="middle" x="694.02" y="-360.69" font-family="Roboto Light" font-size="11.00">L4&#45;&gt;1</text>
</g>
<!-- 4&#45;&gt;9 -->
<g id="edge13" class="edge">
<title>4:extract_members&#45;&gt;9:pdf_dumps</title>
<path fill="none" stroke="black" stroke-dasharray="5,2" d="M1031.5,-317C1031.5,-317 1136.71,-315.44 1161.37,-315.08"/>
<polygon fill="black" stroke="black" points="1161.53,-316.82 1166.5,-315 1161.47,-313.32 1161.53,-316.82"/>
<text text-anchor="middle" x="1084.01" y="-319.4" font-family="Roboto Light" font-size="12.00">E4&#45;&gt;9</text>
</g>
<!-- 5&#45;&gt;1 -->
<g id="edge9" class="edge">
<title>5:retrive_municipalties_raw&#45;&gt;1:df_dmo_boundaries</title>
<path fill="none" stroke="black" d="M846.5,-152C846.5,-152 593.25,-376.72 557.64,-408.32"/>
<polygon fill="black" stroke="black" points="556.08,-407.37 553.5,-412 558.4,-409.99 556.08,-407.37"/>
<text text-anchor="middle" x="685.89" y="-285.3" font-family="Roboto Light" font-size="11.00">L5&#45;&gt;1</text>
</g>
<!-- 6&#45;&gt;1 -->
<g id="edge10" class="edge">
<title>6:retrive_unique_mun&#45;&gt;1:df_dmo_muns_w_susr_codes</title>
<path fill="none" stroke="black" d="M832.5,-8C832.5,-8 587.29,-350.77 556.63,-393.62"/>
<polygon fill="black" stroke="black" points="554.99,-392.92 553.5,-398 557.83,-394.95 554.99,-392.92"/>
<text text-anchor="middle" x="679.05" y="-206.13" font-family="Roboto Light" font-size="11.00">L6&#45;&gt;1</text>
</g>
<!-- 8&#45;&gt;9 -->
<g id="edge14" class="edge">
<title>8:e&#45;&gt;9:e</title>
<path fill="none" stroke="black" d="M1287.7,-455.4C1287.7,-455.4 1305.63,-392.08 1306.7,-340.2 1306.84,-333.15 1305.6,-325.07 1304.64,-320"/>
<polygon fill="black" stroke="black" points="1306.33,-319.54 1303.6,-315 1302.91,-320.25 1306.33,-319.54"/>
<text text-anchor="middle" x="1297.89" y="-391.25" font-family="Roboto Light" font-size="15.00">L</text>
</g>
<!-- 1 -->
<g id="node1" class="node">
<title>1</title>
<polygon fill="#f37726" stroke="transparent" points="554.5,-528 330.5,-528 330.5,-390 554.5,-390 554.5,-528"/>
<text text-anchor="start" x="379.5" y="-518.2" font-family="Roboto Light" font-size="11.00"> </text>
<text text-anchor="start" x="383.5" y="-518.2" font-family="Roboto Light" font-weight="bold" font-size="11.00">1 main_MinDOP_to_GKU</text>
<text text-anchor="start" x="383.5" y="-507.2" font-family="Roboto Light" font-style="italic" font-size="11.00">1 Main controler (.ipynb)</text>
<text text-anchor="start" x="351.5" y="-493.2" font-family="Roboto Light" font-size="11.00">Used for invoking individual modules</text>
<text text-anchor="start" x="332.5" y="-479.2" font-family="Roboto Light" font-size="11.00">Extract (E), Transform (T), Load (L), Invoke (I)</text>
<text text-anchor="start" x="413.5" y="-466.2" font-family="Roboto Light" font-weight="bold" font-size="11.00">List of DFs:</text>
<text text-anchor="start" x="420" y="-451.2" font-family="Roboto Light" font-size="11.00">gpdf_gku</text>
<text text-anchor="start" x="424" y="-437.2" font-family="Roboto Light" font-size="11.00">df_dmo</text>
<text text-anchor="start" x="411" y="-423.2" font-family="Roboto Light" font-size="11.00">df_members</text>
<text text-anchor="start" x="394" y="-409.2" font-family="Roboto Light" font-size="11.00">df_dmo_boundaries</text>
<text text-anchor="start" x="369.5" y="-395.2" font-family="Roboto Light" font-size="11.00">df_dmo_muns_w_susr_codes</text>
<polygon fill="none" stroke="#616262" points="330.5,-390 330.5,-528 554.5,-528 554.5,-390 330.5,-390"/>
</g>
<!-- 2 -->
<g id="node2" class="node">
<title>2</title>
<polygon fill="#ffd846" stroke="transparent" points="989,-630 904,-630 904,-576 989,-576 989,-630"/>
<text text-anchor="start" x="919.5" y="-620.2" font-family="Roboto Light" font-size="11.00"> </text>
<text text-anchor="start" x="923.5" y="-620.2" font-family="Roboto Light" font-weight="bold" font-size="11.00">2 call_wfs</text>
<text text-anchor="start" x="916.5" y="-609.2" font-family="Roboto Light" font-style="italic" font-size="11.00">module (.py)</text>
<text text-anchor="start" x="924" y="-595.2" font-family="Roboto Light" font-size="11.00">Call WFS</text>
<text text-anchor="start" x="906.5" y="-581.2" font-family="Roboto Light" font-size="11.00">Retrieve as gpdf</text>
<polygon fill="none" stroke="#3671a1" points="904,-576 904,-630 989,-630 989,-576 904,-576"/>
</g>
<!-- 3 -->
<g id="node3" class="node">
<title>3</title>
<polygon fill="#ffd846" stroke="transparent" points="1072.5,-486 820.5,-486 820.5,-432 1072.5,-432 1072.5,-486"/>
<text text-anchor="start" x="890" y="-476.2" font-family="Roboto Light" font-size="11.00"> </text>
<text text-anchor="start" x="894" y="-476.2" font-family="Roboto Light" font-weight="bold" font-size="11.00">3 get_dmo_base_data</text>
<text text-anchor="start" x="916" y="-465.2" font-family="Roboto Light" font-style="italic" font-size="11.00">module (.py)</text>
<text text-anchor="start" x="822.5" y="-451.2" font-family="Roboto Light" font-size="11.00">Scrapp pdf datalake of MINDOP&#39;s Registry of DMO</text>
<text text-anchor="start" x="892.5" y="-437.2" font-family="Roboto Light" font-size="11.00">Retrieve structured df</text>
<polygon fill="none" stroke="#3671a1" points="820.5,-432 820.5,-486 1072.5,-486 1072.5,-432 820.5,-432"/>
</g>
<!-- 4 -->
<g id="node4" class="node">
<title>4</title>
<polygon fill="#ffd846" stroke="transparent" points="1032,-349 861,-349 861,-281 1032,-281 1032,-349"/>
<text text-anchor="start" x="878" y="-339.2" font-family="Roboto Light" font-size="11.00"> </text>
<text text-anchor="start" x="882" y="-339.2" font-family="Roboto Light" font-weight="bold" font-size="11.00">4 get_dmo_base_members</text>
<text text-anchor="start" x="916.5" y="-328.2" font-family="Roboto Light" font-style="italic" font-size="11.00">module (.py)</text>
<text text-anchor="start" x="863.5" y="-314.2" font-family="Roboto Light" font-size="11.00">Extract member names from pdfs</text>
<text text-anchor="start" x="891.5" y="-300.2" font-family="Roboto Light" font-size="11.00">identify municipalities</text>
<text text-anchor="start" x="893" y="-286.2" font-family="Roboto Light" font-size="11.00">Retrieve structured df</text>
<polygon fill="none" stroke="#3671a1" points="861,-281 861,-349 1032,-349 1032,-281 861,-281"/>
</g>
<!-- 5 -->
<g id="node5" class="node">
<title>5</title>
<polygon fill="#ffd846" stroke="transparent" points="1047.5,-198 845.5,-198 845.5,-144 1047.5,-144 1047.5,-198"/>
<text text-anchor="start" x="863" y="-188.2" font-family="Roboto Light" font-size="11.00"> </text>
<text text-anchor="start" x="867" y="-188.2" font-family="Roboto Light" font-weight="bold" font-size="11.00">5 clean_dmo_municipality_name</text>
<text text-anchor="start" x="916" y="-177.2" font-family="Roboto Light" font-style="italic" font-size="11.00">module (.py)</text>
<text text-anchor="start" x="847.5" y="-163.2" font-family="Roboto Light" font-size="11.00">Reformat and clean municipality names</text>
<text text-anchor="start" x="883" y="-149.2" font-family="Roboto Light" font-size="11.00">Retrieve df municipalities</text>
<polygon fill="none" stroke="#3671a1" points="845.5,-144 845.5,-198 1047.5,-198 1047.5,-144 845.5,-144"/>
</g>
<!-- 6 -->
<g id="node6" class="node">
<title>6</title>
<polygon fill="#ffd846" stroke="transparent" points="1061.5,-54 831.5,-54 831.5,0 1061.5,0 1061.5,-54"/>
<text text-anchor="start" x="865.5" y="-44.2" font-family="Roboto Light" font-size="11.00"> </text>
<text text-anchor="start" x="869.5" y="-44.2" font-family="Roboto Light" font-weight="bold" font-size="11.00">6 drop_duplicate_municipalities</text>
<text text-anchor="start" x="916" y="-33.2" font-family="Roboto Light" font-style="italic" font-size="11.00">module (.py)</text>
<text text-anchor="start" x="849" y="-19.2" font-family="Roboto Light" font-size="11.00">Drop duplicate municipalities in DMOs </text>
<text text-anchor="start" x="833.5" y="-5.2" font-family="Roboto Light" font-size="11.00">Retrieve unique df with unique municipalities </text>
<polygon fill="none" stroke="#3671a1" points="831.5,0 831.5,-54 1061.5,-54 1061.5,0 831.5,0"/>
</g>
<!-- 7 -->
<g id="node7" class="node">
<title>7</title>
<polygon fill="#c2f0ee" stroke="transparent" points="1262,-623 1207,-623 1207,-583 1262,-583 1262,-623"/>
<text text-anchor="start" x="1211.5" y="-613.2" font-family="Roboto Light" font-size="11.00"> </text>
<text text-anchor="start" x="1215.5" y="-613.2" font-family="Roboto Light" font-weight="bold" font-size="11.00">7 rpi.gov</text>
<text text-anchor="start" x="1224" y="-602.2" font-family="Roboto Light" font-style="italic" font-size="11.00">WFS</text>
<text text-anchor="start" x="1209.5" y="-588.2" font-family="Roboto Light" font-size="11.00">GKU WFS </text>
<polygon fill="none" stroke="#c2f0ee" points="1207,-583 1207,-623 1262,-623 1262,-583 1207,-583"/>
</g>
<!-- 8 -->
<g id="node8" class="node">
<title>8</title>
<polygon fill="#c2f0ee" stroke="transparent" points="1287.7,-477.4 1195.7,-477.4 1195.7,-433.4 1287.7,-433.4 1287.7,-477.4"/>
<text text-anchor="start" x="1209.2" y="-467.6" font-family="Roboto Light" font-size="11.00"> </text>
<text text-anchor="start" x="1213.2" y="-467.6" font-family="Roboto Light" font-weight="bold" font-size="11.00">8 mindop.sk</text>
<text text-anchor="start" x="1209.2" y="-453.6" font-family="Roboto Light" font-size="11.00"> </text>
<text text-anchor="start" x="1213.2" y="-453.6" font-family="Roboto Light" font-style="italic" font-size="11.00">pdf datalake</text>
<text text-anchor="start" x="1197.7" y="-438.6" font-family="Roboto Light" font-size="11.00">Registry of DMOs</text>
<polygon fill="none" stroke="#c2f0ee" points="1195.7,-433.4 1195.7,-477.4 1287.7,-477.4 1287.7,-433.4 1195.7,-433.4"/>
</g>
<!-- 9 -->
<g id="node9" class="node">
<title>9</title>
<polygon fill="#c2f0ee" stroke="transparent" points="1303.5,-337 1165.5,-337 1165.5,-293 1303.5,-293 1303.5,-337"/>
<text text-anchor="start" x="1202" y="-327.2" font-family="Roboto Light" font-size="11.00"> </text>
<text text-anchor="start" x="1206" y="-327.2" font-family="Roboto Light" font-weight="bold" font-size="11.00">9 Local host</text>
<text text-anchor="start" x="1208.5" y="-313.2" font-family="Roboto Light" font-style="italic" font-size="11.00">pdf dumps</text>
<text text-anchor="start" x="1167.5" y="-298.2" font-family="Roboto Light" font-size="11.00">Each DMOs current extract</text>
<polygon fill="none" stroke="#c2f0ee" points="1165.5,-293 1165.5,-337 1303.5,-337 1303.5,-293 1165.5,-293"/>
</g>
<!-- 10 -->
<g id="node10" class="node">
<title>10</title>
<polygon fill="#ffffff" stroke="transparent" points="165,-499.6 0,-499.6 0,-389.6 165,-389.6 165,-499.6"/>
<text text-anchor="start" x="37" y="-489.8" font-family="Roboto Light" font-size="11.00"> </text>
<text text-anchor="start" x="41" y="-489.8" font-family="Roboto Light" font-weight="bold" font-size="11.00">db_schema_gtlab</text>
<text text-anchor="start" x="28.5" y="-478.8" font-family="Roboto Light" font-style="italic" font-size="11.00">database (PostGis DB)</text>
<text text-anchor="start" x="50" y="-465.8" font-family="Roboto Light" font-weight="bold" font-size="11.00">List of tables</text>
<text text-anchor="start" x="28" y="-450.8" font-family="Roboto Light" font-size="11.00">sk_municipalities_gku</text>
<text text-anchor="start" x="49" y="-436.8" font-family="Roboto Light" font-size="11.00">sk_dmos_raw</text>
<text text-anchor="start" x="25.5" y="-422.8" font-family="Roboto Light" font-size="11.00">sk_dmo_members_raw</text>
<text text-anchor="start" x="22" y="-408.8" font-family="Roboto Light" font-size="11.00">sk_dmo_boundaries_raw</text>
<text text-anchor="start" x="2.5" y="-394.8" font-family="Roboto Light" font-size="11.00">sk_dmo_boundaries_susr_codes</text>
<polygon fill="none" stroke="#336791" points="0,-389.6 0,-499.6 165,-499.6 165,-389.6 0,-389.6"/>
</g>
</g>
</svg>
