<?xml version="1.0" encoding="UTF-8" standalone="no"?>
<!DOCTYPE svg PUBLIC "-//W3C//DTD SVG 1.1//EN"
 "http://www.w3.org/Graphics/SVG/1.1/DTD/svg11.dtd">
<!-- Generated by graphviz version 2.50.0 (0)
 -->
<!-- Pages: 1 -->
<svg width="1430pt" height="559pt"
 viewBox="0.00 0.00 1430.00 559.00" xmlns="http://www.w3.org/2000/svg" xmlns:xlink="http://www.w3.org/1999/xlink">
<g id="graph0" class="graph" transform="scale(1 1) rotate(0) translate(4 555)">
<polygon fill="white" stroke="transparent" points="-4,4 -4,-555 1426,-555 1426,4 -4,4"/>
<!-- 1&#45;&gt;2 -->
<g id="edge1" class="edge">
<title>1:IETL&#45;&gt;2:scrapp_ta_reviews_w_prox</title>
<polygon fill="black" stroke="transparent" points="824.98,-505.5 827.38,-505.58 834.26,-505.83 845.17,-506.22 859.65,-506.73 877.22,-507.35 897.44,-508.07 919.85,-508.87 943.97,-509.72 969.35,-510.63 995.54,-511.56 1022.06,-512.5 1048.46,-513.43 1074.27,-514.35 1099.04,-515.23 1122.31,-516.06 1143.61,-516.81 1162.48,-517.48 1178.46,-518.05 1191.09,-518.5 1199.92,-518.81 1199.92,-518.81 1191.09,-518.48 1178.46,-517.99 1162.48,-517.38 1143.61,-516.66 1122.32,-515.85 1099.05,-514.96 1074.28,-514.02 1048.47,-513.03 1022.08,-512.02 995.56,-511.01 969.38,-510.01 944,-509.04 919.87,-508.12 897.47,-507.27 877.26,-506.49 859.68,-505.82 845.21,-505.27 834.3,-504.85 827.42,-504.59 825.02,-504.5 824.98,-505.5"/>
<polygon fill="black" stroke="black" points="1199.94,-520.56 1205,-519 1200.07,-517.07 1199.94,-520.56"/>
<text text-anchor="middle" x="1177.36" y="-527.87" font-family="Roboto Light" font-size="11.00">IE1&#45;&gt;2</text>
</g>
<!-- 1&#45;&gt;4 -->
<g id="edge4" class="edge">
<title>1:IETL&#45;&gt;4:transform_raw_reviews</title>
<polygon fill="black" stroke="transparent" points="825.27,-505.42 827.84,-503.74 835.19,-498.91 846.85,-491.25 862.31,-481.11 881.06,-468.79 902.63,-454.63 926.5,-438.96 952.19,-422.1 979.19,-404.37 1007.01,-386.11 1035.14,-367.64 1063.11,-349.28 1090.39,-331.36 1116.51,-314.22 1140.96,-298.17 1163.24,-283.54 1182.86,-270.66 1199.32,-259.85 1212.13,-251.44 1220.78,-245.77 1220.78,-245.77 1212.12,-251.43 1199.29,-259.81 1182.81,-270.58 1163.16,-283.42 1140.85,-298 1116.37,-314 1090.21,-331.09 1062.89,-348.95 1034.89,-367.24 1006.71,-385.66 978.85,-403.86 951.82,-421.53 926.09,-438.34 902.19,-453.96 880.59,-468.07 861.81,-480.35 846.33,-490.46 834.66,-498.09 827.29,-502.9 824.73,-504.58 825.27,-505.42"/>
<polygon fill="black" stroke="black" points="1221.78,-247.2 1225,-243 1219.86,-244.28 1221.78,-247.2"/>
<text text-anchor="middle" x="1209.2" y="-265.7" font-family="Roboto Light" font-size="11.00">IT1&#45;&gt;4</text>
</g>
<!-- 1&#45;&gt;5 -->
<g id="edge6" class="edge">
<title>1:IETL&#45;&gt;5:identify_lang</title>
<polygon fill="black" stroke="transparent" points="825.41,-505.29 827.58,-502.18 833.79,-493.27 843.63,-479.16 856.67,-460.46 872.5,-437.77 890.68,-411.7 910.8,-382.86 932.43,-351.85 955.15,-319.27 978.53,-285.74 1002.17,-251.86 1025.62,-218.23 1048.47,-185.46 1070.3,-154.17 1090.69,-124.94 1109.2,-98.4 1125.42,-75.14 1138.93,-55.77 1149.3,-40.9 1156.11,-31.13 1156.11,-31.13 1149.28,-40.89 1138.89,-55.74 1125.35,-75.08 1109.08,-98.31 1090.52,-124.83 1070.09,-154.02 1048.21,-185.28 1025.3,-218 1001.78,-251.59 978.09,-285.43 954.65,-318.92 931.87,-351.46 910.19,-382.44 890.02,-411.24 871.79,-437.28 855.93,-459.94 842.85,-478.62 832.99,-492.71 826.76,-501.61 824.59,-504.71 825.41,-505.29"/>
<polygon fill="black" stroke="black" points="1157.57,-32.1 1159,-27 1154.7,-30.1 1157.57,-32.1"/>
<text text-anchor="middle" x="1153.82" y="-53.75" font-family="Roboto Light" font-size="11.00">IT1&#45;&gt;5</text>
</g>
<!-- 1&#45;&gt;6 -->
<g id="edge8" class="edge">
<title>1:IETL&#45;&gt;6:ggl_translate_en</title>
<polygon fill="black" stroke="transparent" points="602.96,-504.5 600.92,-504.67 595.05,-505.14 585.74,-505.89 573.39,-506.89 558.39,-508.1 541.12,-509.5 521.98,-511.05 501.35,-512.71 479.63,-514.47 457.2,-516.28 434.47,-518.12 411.81,-519.95 389.61,-521.74 368.28,-523.47 348.19,-525.09 329.75,-526.58 313.33,-527.91 299.33,-529.04 288.14,-529.95 280.15,-530.59 280.15,-530.59 288.14,-529.97 299.33,-529.1 313.34,-528.01 329.76,-526.74 348.21,-525.3 368.3,-523.74 389.64,-522.08 411.84,-520.36 434.5,-518.6 457.25,-516.83 479.68,-515.09 501.4,-513.4 522.04,-511.79 541.18,-510.31 558.46,-508.96 573.47,-507.8 585.82,-506.84 595.13,-506.11 601,-505.66 603.04,-505.5 602.96,-504.5"/>
<polygon fill="black" stroke="black" points="279.85,-528.86 275,-531 280.12,-532.35 279.85,-528.86"/>
<text text-anchor="middle" x="301.1" y="-513.41" font-family="Roboto Light" font-size="11.00">IT1&#45;&gt;6</text>
</g>
<!-- 1&#45;&gt;7 -->
<g id="edge10" class="edge">
<title>1:IETL&#45;&gt;7:whole_review_sentiment_analysis</title>
<polygon fill="black" stroke="transparent" points="603.29,-504.59 600.9,-502.92 594.06,-498.12 583.22,-490.53 568.84,-480.45 551.38,-468.22 531.31,-454.15 509.09,-438.58 485.18,-421.82 460.03,-404.2 434.12,-386.04 407.9,-367.67 381.83,-349.4 356.38,-331.57 332,-314.48 309.16,-298.48 288.32,-283.88 269.95,-271 254.49,-260.17 242.42,-251.71 234.19,-245.94 234.19,-245.94 242.4,-251.73 254.46,-260.21 269.89,-271.08 288.24,-284 309.05,-298.65 331.85,-314.7 356.19,-331.84 381.6,-349.73 407.63,-368.05 433.81,-386.49 459.68,-404.7 484.79,-422.38 508.66,-439.19 530.85,-454.81 550.89,-468.92 568.32,-481.19 582.67,-491.3 593.5,-498.92 600.33,-503.73 602.71,-505.41 603.29,-504.59"/>
<polygon fill="black" stroke="black" points="235.1,-244.44 230,-243 233.09,-247.31 235.1,-244.44"/>
<text text-anchor="middle" x="259.54" y="-245.45" font-family="Roboto Light" font-size="11.00">IT1&#45;&gt;7</text>
</g>
<!-- 2&#45;&gt;3 -->
<g id="edge2" class="edge">
<title>2:e&#45;&gt;3:e</title>
<path fill="none" stroke="black" stroke-dasharray="5,2" d="M1377.1,-524C1377.1,-524 1385.73,-505.85 1379.7,-493.8 1341.74,-417.94 1227.45,-387.14 1202.04,-381.13"/>
<polygon fill="black" stroke="black" points="1202.26,-379.39 1197,-380 1201.5,-382.8 1202.26,-379.39"/>
<text text-anchor="middle" x="1290.59" y="-424.26" font-family="Roboto Light" font-size="11.00">E2&#45;&gt;3</text>
</g>
<!-- 2&#45;&gt;10 -->
<g id="edge3" class="edge">
<title>2:retrieve_df&#45;&gt;10:sk_ta_geosites_reviews_raw</title>
<path fill="none" stroke="black" d="M1205,-505C1205,-505 836.74,-321.31 790.71,-298.35"/>
<polygon fill="black" stroke="black" points="791.26,-296.67 786,-296 789.69,-299.8 791.26,-296.67"/>
<text text-anchor="middle" x="978.58" y="-403.74" font-family="Roboto Light" font-size="11.00">L1&#45;&gt;10</text>
</g>
<!-- 4&#45;&gt;10 -->
<g id="edge5" class="edge">
<title>4:transform_raw_reviews&#45;&gt;10:sk_ta_geosites_reviews</title>
<path fill="none" stroke="black" stroke-dasharray="1,5" d="M1225,-243C1225,-243 840.77,-277.13 791.24,-281.53"/>
<polygon fill="black" stroke="black" points="790.83,-279.81 786,-282 791.14,-283.3 790.83,-279.81"/>
<text text-anchor="middle" x="988.66" y="-265.69" font-family="Roboto Light" font-size="11.00">T4&#45;&gt;10</text>
</g>
<!-- 5&#45;&gt;10 -->
<g id="edge7" class="edge">
<title>5:identify_lang_out&#45;&gt;10:sk_ta_geosites_reviews</title>
<path fill="none" stroke="black" stroke-dasharray="1,5" d="M1159,-8C1159,-8 831.17,-248.82 790.19,-278.92"/>
<polygon fill="black" stroke="black" points="788.99,-277.63 786,-282 791.07,-280.45 788.99,-277.63"/>
<text text-anchor="middle" x="805.21" y="-244.11" font-family="Roboto Light" font-size="11.00">T5&#45;&gt;10</text>
</g>
<!-- 6&#45;&gt;10 -->
<g id="edge9" class="edge">
<title>6:ggl_translate_en_out&#45;&gt;10:sk_ta_geosites_reviews</title>
<path fill="none" stroke="black" stroke-dasharray="1,5" d="M275,-512C275,-512 596.22,-310.69 637.62,-284.74"/>
<polygon fill="black" stroke="black" points="638.69,-286.14 642,-282 636.83,-283.17 638.69,-286.14"/>
<text text-anchor="middle" x="620.26" y="-312.78" font-family="Roboto Light" font-size="11.00">T6&#45;&gt;10</text>
</g>
<!-- 7&#45;&gt;10 -->
<g id="edge11" class="edge">
<title>7:whole_review_sentiment_analysis_out&#45;&gt;10:sk_ta_geosites_reviews</title>
<polygon fill="black" stroke="transparent" points="229.93,-224.5 232.54,-224.86 240.03,-225.91 251.91,-227.56 267.66,-229.76 286.79,-232.43 308.8,-235.5 333.17,-238.9 359.41,-242.56 387.01,-246.41 415.47,-250.38 444.29,-254.41 472.97,-258.41 501,-262.32 527.87,-266.07 553.1,-269.59 576.16,-272.81 596.57,-275.65 613.81,-278.06 627.38,-279.95 636.79,-281.27 636.79,-281.27 627.39,-279.93 613.82,-278 596.58,-275.56 576.18,-272.66 553.12,-269.38 527.91,-265.8 501.04,-261.99 473.03,-258.01 444.36,-253.94 415.55,-249.85 387.1,-245.81 359.5,-241.89 333.27,-238.16 308.91,-234.7 286.91,-231.58 267.79,-228.86 252.04,-226.63 240.17,-224.94 232.68,-223.88 230.07,-223.5 229.93,-224.5"/>
<polygon fill="black" stroke="black" points="636.8,-283.04 642,-282 637.29,-279.57 636.8,-283.04"/>
<text text-anchor="middle" x="603.75" y="-290.89" font-family="Roboto Light" font-size="11.00">T7&#45;&gt;10</text>
</g>
<!-- 1 -->
<g id="node1" class="node">
<title>1</title>
<polygon fill="#f37726" stroke="transparent" points="826,-551 602,-551 602,-497 826,-497 826,-551"/>
<text text-anchor="start" x="660.5" y="-541.2" font-family="Roboto Light" font-size="11.00"> </text>
<text text-anchor="start" x="664.5" y="-541.2" font-family="Roboto Light" font-weight="bold" font-size="11.00">1 mainTipAdvisorPoi</text>
<text text-anchor="start" x="655" y="-530.2" font-family="Roboto Light" font-style="italic" font-size="11.00">1 Main controler (.ipynb)</text>
<text text-anchor="start" x="623" y="-516.2" font-family="Roboto Light" font-size="11.00">Used for invoking individual modules</text>
<text text-anchor="start" x="604" y="-502.2" font-family="Roboto Light" font-size="11.00">Extract (E), Transform (T), Load (L), Invoke (I)</text>
<polygon fill="none" stroke="#616262" points="602,-497 602,-551 826,-551 826,-497 602,-497"/>
</g>
<!-- 2 -->
<g id="node2" class="node">
<title>2</title>
<polygon fill="#ffd846" stroke="transparent" points="1376.5,-551 1203.5,-551 1203.5,-497 1376.5,-497 1376.5,-551"/>
<text text-anchor="start" x="1217.5" y="-541.2" font-family="Roboto Light" font-size="11.00"> </text>
<text text-anchor="start" x="1221.5" y="-541.2" font-family="Roboto Light" font-weight="bold" font-size="11.00">2 scrapp_ta_reviews_w_prox</text>
<text text-anchor="start" x="1260" y="-530.2" font-family="Roboto Light" font-style="italic" font-size="11.00">module (.py)</text>
<text text-anchor="start" x="1213" y="-516.2" font-family="Roboto Light" font-size="11.00">Scrapp each review as raw text</text>
<text text-anchor="start" x="1206" y="-502.2" font-family="Roboto Light" font-size="11.00">Retrieve as df (poi_id, review_raw)</text>
<polygon fill="none" stroke="#3671a1" points="1203.5,-497 1203.5,-551 1376.5,-551 1376.5,-497 1203.5,-497"/>
</g>
<!-- 3 -->
<g id="node3" class="node">
<title>3</title>
<polygon fill="#c2f0ee" stroke="transparent" points="1196.5,-400 1095.5,-400 1095.5,-360 1196.5,-360 1196.5,-400"/>
<text text-anchor="start" x="1111.5" y="-390.2" font-family="Roboto Light" font-size="11.00"> </text>
<text text-anchor="start" x="1115.5" y="-390.2" font-family="Roboto Light" font-weight="bold" font-size="11.00">3 TripAdvisor</text>
<text text-anchor="start" x="1125" y="-379.2" font-family="Roboto Light" font-style="italic" font-size="11.00">Web app</text>
<text text-anchor="start" x="1098" y="-365.2" font-family="Roboto Light" font-size="11.00">Each POI&#39;s subpage</text>
<polygon fill="none" stroke="#c2f0ee" points="1095.5,-360 1095.5,-400 1196.5,-400 1196.5,-360 1095.5,-360"/>
</g>
<!-- 4 -->
<g id="node4" class="node">
<title>4</title>
<polygon fill="#ffd846" stroke="transparent" points="1356.5,-256 1223.5,-256 1223.5,-216 1356.5,-216 1356.5,-256"/>
<text text-anchor="start" x="1226" y="-246.2" font-family="Roboto Light" font-size="11.00"> </text>
<text text-anchor="start" x="1230" y="-246.2" font-family="Roboto Light" font-weight="bold" font-size="11.00">4 transform_raw_reviews</text>
<text text-anchor="start" x="1260" y="-235.2" font-family="Roboto Light" font-style="italic" font-size="11.00">module (.py)</text>
<text text-anchor="start" x="1230.5" y="-221.2" font-family="Roboto Light" font-size="11.00">Transform raw text to df</text>
<polygon fill="none" stroke="#3671a1" points="1223.5,-216 1223.5,-256 1356.5,-256 1356.5,-216 1223.5,-216"/>
</g>
<!-- 5 -->
<g id="node5" class="node">
<title>5</title>
<polygon fill="#ffd846" stroke="transparent" points="1422,-40 1158,-40 1158,0 1422,0 1422,-40"/>
<text text-anchor="start" x="1251.5" y="-30.2" font-family="Roboto Light" font-size="11.00"> </text>
<text text-anchor="start" x="1255.5" y="-30.2" font-family="Roboto Light" font-weight="bold" font-size="11.00">5 identify_lang</text>
<text text-anchor="start" x="1259.5" y="-19.2" font-family="Roboto Light" font-style="italic" font-size="11.00">module (.py)</text>
<text text-anchor="start" x="1160" y="-5.2" font-family="Roboto Light" font-size="11.00">Identify language of review via langdetect and langid</text>
<polygon fill="none" stroke="#3671a1" points="1158,0 1158,-40 1422,-40 1422,0 1158,0"/>
</g>
<!-- 6 -->
<g id="node6" class="node">
<title>6</title>
<polygon fill="#ffd846" stroke="transparent" points="276,-544 0,-544 0,-504 276,-504 276,-544"/>
<text text-anchor="start" x="90.5" y="-534.2" font-family="Roboto Light" font-size="11.00"> </text>
<text text-anchor="start" x="94.5" y="-534.2" font-family="Roboto Light" font-weight="bold" font-size="11.00">6 ggl_translate_en</text>
<text text-anchor="start" x="107.5" y="-523.2" font-family="Roboto Light" font-style="italic" font-size="11.00">module (.py)</text>
<text text-anchor="start" x="2" y="-509.2" font-family="Roboto Light" font-size="11.00">Translate non English reviews via Google Translate API</text>
<polygon fill="none" stroke="#3671a1" points="0,-504 0,-544 276,-544 276,-504 0,-504"/>
</g>
<!-- 7 -->
<g id="node7" class="node">
<title>7</title>
<polygon fill="#ffd846" stroke="transparent" points="231,-256 45,-256 45,-216 231,-216 231,-256"/>
<text text-anchor="start" x="47" y="-246.2" font-family="Roboto Light" font-size="11.00"> </text>
<text text-anchor="start" x="51" y="-246.2" font-family="Roboto Light" font-weight="bold" font-size="11.00">7 whole_review_sentiment_analysis</text>
<text text-anchor="start" x="107.5" y="-235.2" font-family="Roboto Light" font-style="italic" font-size="11.00">module (.py)</text>
<text text-anchor="start" x="48" y="-221.2" font-family="Roboto Light" font-size="11.00">Identify polarity via selected models</text>
<polygon fill="none" stroke="#3671a1" points="45,-216 45,-256 231,-256 231,-216 45,-216"/>
</g>
<!-- 10 -->
<g id="node8" class="node">
<title>10</title>
<polygon fill="#ffffff" stroke="transparent" points="787,-342 641,-342 641,-274 787,-274 787,-342"/>
<text text-anchor="start" x="668" y="-332.2" font-family="Roboto Light" font-size="11.00"> </text>
<text text-anchor="start" x="672" y="-332.2" font-family="Roboto Light" font-weight="bold" font-size="11.00">db_schema_gtlab</text>
<text text-anchor="start" x="659" y="-321.2" font-family="Roboto Light" font-style="italic" font-size="11.00">Database (PostGis DB)</text>
<text text-anchor="start" x="681" y="-308.2" font-family="Roboto Light" font-weight="bold" font-size="11.00">List of tables</text>
<text text-anchor="start" x="643" y="-293.2" font-family="Roboto Light" font-size="11.00">sk_ta_geosites_reviews_raw</text>
<text text-anchor="start" x="655" y="-279.2" font-family="Roboto Light" font-size="11.00">sk_ta_geosites_reviews</text>
<polygon fill="none" stroke="#336791" points="641,-274 641,-342 787,-342 787,-274 641,-274"/>
</g>
</g>
</svg>
