<?xml version="1.0" encoding="UTF-8" standalone="no"?>
<!DOCTYPE svg PUBLIC "-//W3C//DTD SVG 1.1//EN"
 "http://www.w3.org/Graphics/SVG/1.1/DTD/svg11.dtd">
<!-- Generated by graphviz version 2.50.0 (0)
 -->
<!-- Pages: 1 -->
<svg width="1424pt" height="573pt"
 viewBox="0.00 0.00 1424.00 573.00" xmlns="http://www.w3.org/2000/svg" xmlns:xlink="http://www.w3.org/1999/xlink">
<g id="graph0" class="graph" transform="scale(1 1) rotate(0) translate(4 569)">
<polygon fill="white" stroke="transparent" points="-4,4 -4,-569 1420,-569 1420,4 -4,4"/>
<!-- 1&#45;&gt;2 -->
<g id="edge1" class="edge">
<title>1:IETL&#45;&gt;2:scrapp_base_list</title>
<polygon fill="black" stroke="transparent" points="827.98,-519.5 830.32,-519.58 837.05,-519.83 847.72,-520.21 861.87,-520.73 879.07,-521.35 898.85,-522.06 920.76,-522.86 944.37,-523.71 969.22,-524.61 994.85,-525.54 1020.83,-526.48 1046.69,-527.41 1072,-528.33 1096.3,-529.21 1119.14,-530.03 1140.07,-530.79 1158.65,-531.46 1174.41,-532.03 1186.92,-532.48 1195.73,-532.8 1195.73,-532.8 1186.92,-532.46 1174.42,-531.97 1158.65,-531.36 1140.08,-530.64 1119.15,-529.82 1096.31,-528.94 1072.01,-527.99 1046.71,-527.01 1020.85,-526 994.87,-524.99 969.24,-523.99 944.4,-523.03 920.79,-522.11 898.88,-521.26 879.1,-520.49 861.91,-519.82 847.76,-519.27 837.09,-518.85 830.36,-518.59 828.02,-518.5 827.98,-519.5"/>
<polygon fill="black" stroke="black" points="1195.94,-534.56 1201,-533 1196.07,-531.06 1195.94,-534.56"/>
<text text-anchor="middle" x="1173.35" y="-541.85" font-family="Roboto Light" font-size="11.00">IE1&#45;&gt;2</text>
</g>
<!-- 1&#45;&gt;5 -->
<g id="edge6" class="edge">
<title>1:IETL&#45;&gt;5:transform5</title>
<polygon fill="black" stroke="transparent" points="600,-518.5 597.98,-518.5 592.16,-518.51 582.94,-518.53 570.7,-518.55 555.83,-518.57 538.72,-518.6 519.75,-518.63 499.3,-518.66 477.78,-518.69 455.56,-518.73 433.03,-518.76 410.57,-518.8 388.58,-518.83 367.44,-518.86 347.53,-518.89 329.25,-518.92 312.98,-518.95 299.11,-518.97 288.02,-518.99 280.1,-519 280.1,-519 288.02,-519.01 299.11,-519.03 312.98,-519.05 329.25,-519.08 347.53,-519.11 367.44,-519.14 388.58,-519.17 410.57,-519.2 433.03,-519.24 455.56,-519.27 477.78,-519.31 499.3,-519.34 519.75,-519.37 538.72,-519.4 555.83,-519.43 570.7,-519.45 582.94,-519.47 592.16,-519.49 597.98,-519.5 600,-519.5 600,-518.5"/>
<polygon fill="black" stroke="black" points="280,-517.25 275,-519 280,-520.75 280,-517.25"/>
<text text-anchor="middle" x="422.02" y="-522.2" font-family="Roboto Light" font-size="11.00">IT1&#45;&gt;5</text>
</g>
<!-- 1&#45;&gt;6 -->
<g id="edge8" class="edge">
<title>1:IETL&#45;&gt;6:gglGeocodePoi</title>
<path fill="none" stroke="black" stroke-dasharray="5,2" d="M600,-519C600,-519 255.47,-272.03 212.4,-241.16"/>
<polygon fill="black" stroke="black" points="213.08,-239.49 208,-238 211.04,-242.34 213.08,-239.49"/>
<text text-anchor="middle" x="247.31" y="-242.58" font-family="Roboto Light" font-size="11.00">IE1&#45;&gt;6</text>
</g>
<!-- 1&#45;&gt;7 -->
<g id="edge9" class="edge">
<title>1:IETL&#45;&gt;7:gglGeocodePoiWOaddress</title>
<path fill="none" stroke="black" stroke-dasharray="5,2" d="M600,-519C600,-519 255.43,-73.04 219.09,-26"/>
<polygon fill="black" stroke="black" points="220.44,-24.89 216,-22 217.67,-27.03 220.44,-24.89"/>
<text text-anchor="middle" x="251.54" y="-37.55" font-family="Roboto Light" font-size="11.00">IE1&#45;&gt;7</text>
</g>
<!-- 1&#45;&gt;8 -->
<g id="edge12" class="edge">
<title>1:IETL&#45;&gt;8:head_get_gku_mun_id_for_ta_poi</title>
<polygon fill="black" stroke="transparent" points="828.41,-519.29 830.6,-516.14 836.87,-507.1 846.79,-492.78 859.95,-473.81 875.92,-450.78 894.27,-424.33 914.57,-395.07 936.39,-363.6 959.31,-330.55 982.91,-296.53 1006.76,-262.15 1030.42,-228.03 1053.48,-194.78 1075.5,-163.03 1096.07,-133.37 1114.75,-106.44 1131.12,-82.84 1144.75,-63.19 1155.21,-48.1 1162.09,-38.19 1162.09,-38.19 1155.2,-48.09 1144.71,-63.16 1131.04,-82.79 1114.64,-106.36 1095.91,-133.26 1075.29,-162.88 1053.21,-194.6 1030.1,-227.8 1006.37,-261.88 982.47,-296.22 958.82,-330.2 935.83,-363.22 913.96,-394.64 893.61,-423.88 875.22,-450.3 859.21,-473.29 846.02,-492.24 836.06,-506.54 829.78,-515.57 827.59,-518.71 828.41,-519.29"/>
<polygon fill="black" stroke="black" points="1163.58,-39.1 1165,-34 1160.71,-37.11 1163.58,-39.1"/>
<text text-anchor="middle" x="1159.9" y="-60.76" font-family="Roboto Light" font-size="11.00">IT1&#45;&gt;8</text>
</g>
<!-- 1&#45;&gt;10 -->
<g id="edge15" class="edge">
<title>1:e&#45;&gt;10:e</title>
<path fill="none" stroke="black" stroke-dasharray="1,5" d="M829.1,-531C829.1,-531 839.82,-435.7 839.7,-359.2 839.68,-345.06 838.34,-328.41 837.6,-320.17"/>
<polygon fill="black" stroke="black" points="839.32,-319.81 837.1,-315 835.84,-320.14 839.32,-319.81"/>
<text text-anchor="middle" x="820.83" y="-426.58" font-family="Roboto Light" font-size="11.00">T1&#45;&gt;10</text>
</g>
<!-- 2&#45;&gt;3 -->
<g id="edge2" class="edge">
<title>2:e&#45;&gt;3:e</title>
<path fill="none" stroke="black" stroke-dasharray="5,2" d="M1380.1,-531C1380.1,-531 1390.28,-508.8 1383.2,-493.8 1351.93,-427.54 1256.51,-395.25 1233.86,-388.4"/>
<polygon fill="black" stroke="black" points="1234.29,-386.71 1229,-387 1233.32,-390.07 1234.29,-386.71"/>
<text text-anchor="middle" x="1309.93" y="-433.44" font-family="Roboto Light" font-size="11.00">E2&#45;&gt;3</text>
</g>
<!-- 2&#45;&gt;10 -->
<g id="edge3" class="edge">
<title>2:retrieve_df&#45;&gt;10:sk_pois_activities_tripadvisor_0723</title>
<path fill="none" stroke="black" d="M1201,-505C1201,-505 882.87,-335.04 840.61,-312.47"/>
<polygon fill="black" stroke="black" points="841.23,-310.81 836,-310 839.59,-313.9 841.23,-310.81"/>
<text text-anchor="middle" x="1001.21" y="-410.54" font-family="Roboto Light" font-size="11.00">L2&#45;&gt;10</text>
</g>
<!-- 4&#45;&gt;3 -->
<g id="edge4" class="edge">
<title>4:e&#45;&gt;3:e</title>
<path fill="none" stroke="black" stroke-dasharray="5,2" d="M1376.1,-243C1376.1,-243 1384.58,-260.83 1379.2,-273.2 1349.85,-340.71 1256.07,-377.46 1233.78,-385.37"/>
<polygon fill="black" stroke="black" points="1233.17,-383.73 1229,-387 1234.3,-387.04 1233.17,-383.73"/>
<text text-anchor="middle" x="1306.99" y="-343.32" font-family="Roboto Light" font-size="11.00">E4&#45;&gt;3</text>
</g>
<!-- 4&#45;&gt;10 -->
<g id="edge5" class="edge">
<title>4:retrieve_tripadvisor_poi_details&#45;&gt;10:sk_pois_activities_tripadvisor_0723_details</title>
<path fill="none" stroke="black" d="M1205,-224C1205,-224 884.72,-286.49 840.94,-295.04"/>
<polygon fill="black" stroke="black" points="840.57,-293.32 836,-296 841.24,-296.76 840.57,-293.32"/>
<text text-anchor="middle" x="1003.28" y="-263.24" font-family="Roboto Light" font-size="11.00">L4&#45;&gt;10</text>
</g>
<!-- 5&#45;&gt;10 -->
<g id="edge7" class="edge">
<title>5:transform5&#45;&gt;10:sk_pois_activities_tripadvisor_0723_details</title>
<path fill="none" stroke="black" stroke-dasharray="1,5" d="M275,-519C275,-519 549.85,-326.26 588.5,-299.15"/>
<polygon fill="black" stroke="black" points="589.91,-300.3 593,-296 587.9,-297.44 589.91,-300.3"/>
<text text-anchor="middle" x="573.02" y="-327.86" font-family="Roboto Light" font-size="11.00">T5&#45;&gt;10</text>
</g>
<!-- 6&#45;&gt;10 -->
<g id="edge10" class="edge">
<title>6:retrieve_lalon&#45;&gt;10:sk_pois_activities_tripadvisor_0723_details</title>
<path fill="none" stroke="black" d="M208,-224C208,-224 542.16,-286.49 587.85,-295.04"/>
<polygon fill="black" stroke="black" points="587.76,-296.8 593,-296 588.41,-293.36 587.76,-296.8"/>
<text text-anchor="middle" x="383.73" y="-263.24" font-family="Roboto Light" font-size="11.00">L6&#45;&gt;10</text>
</g>
<!-- 7&#45;&gt;10 -->
<g id="edge11" class="edge">
<title>7:retrieve_lalon&#45;&gt;10:sk_pois_activities_tripadvisor_0723_details</title>
<path fill="none" stroke="black" d="M216,-8C216,-8 547.35,-261.12 588.77,-292.77"/>
<polygon fill="black" stroke="black" points="587.96,-294.36 593,-296 590.09,-291.57 587.96,-294.36"/>
<text text-anchor="middle" x="387.43" y="-155.15" font-family="Roboto Light" font-size="11.00">L7&#45;&gt;10</text>
</g>
<!-- 8&#45;&gt;10 -->
<g id="edge13" class="edge">
<title>8:get_gku_mun_id_for_ta_poi&#45;&gt;10:sk_pois_activities_tripadvisor_0723_details</title>
<path fill="none" stroke="black" stroke-dasharray="1,5" d="M1165,-15C1165,-15 878.24,-259.92 840.16,-292.45"/>
<polygon fill="black" stroke="black" points="838.67,-291.42 836,-296 840.94,-294.08 838.67,-291.42"/>
<text text-anchor="middle" x="983.24" y="-158.92" font-family="Roboto Light" font-size="11.00">T8&#45;&gt;10</text>
</g>
<!-- 9&#45;&gt;10 -->
<g id="edge14" class="edge">
<title>9:e&#45;&gt;10:e</title>
<path fill="none" stroke="black" stroke-dasharray="1,5" d="M834.1,-27C834.1,-27 836.45,-39.82 837.2,-50.2 844.26,-148 842.02,-172.78 839.7,-270.8 839.36,-284.94 838.17,-301.59 837.52,-309.83"/>
<polygon fill="black" stroke="black" points="835.76,-309.87 837.1,-315 839.25,-310.16 835.76,-309.87"/>
<text text-anchor="middle" x="824.94" y="-174.43" font-family="Roboto Light" font-size="11.00">T9&#45;&gt;10</text>
</g>
<!-- 1 -->
<g id="node1" class="node">
<title>1</title>
<polygon fill="#f37726" stroke="transparent" points="829,-565 599,-565 599,-497 829,-497 829,-565"/>
<text text-anchor="start" x="660.5" y="-555.2" font-family="Roboto Light" font-size="11.00"> </text>
<text text-anchor="start" x="664.5" y="-555.2" font-family="Roboto Light" font-weight="bold" font-size="11.00">1 mainTipAdvisorPoi</text>
<text text-anchor="start" x="655" y="-544.2" font-family="Roboto Light" font-style="italic" font-size="11.00">1 Main controler (.ipynb)</text>
<text text-anchor="start" x="623" y="-530.2" font-family="Roboto Light" font-size="11.00">Used for invoking individual modules</text>
<text text-anchor="start" x="604" y="-516.2" font-family="Roboto Light" font-size="11.00">Extract (E), Transform (T), Load (L), Invoke (I)</text>
<text text-anchor="start" x="601" y="-502.2" font-family="Roboto Light" font-size="11.00">Categorize POI list of tags with TR framework</text>
<polygon fill="none" stroke="#616262" points="599,-497 599,-565 829,-565 829,-497 599,-497"/>
</g>
<!-- 2 -->
<g id="node2" class="node">
<title>2</title>
<polygon fill="#ffd846" stroke="transparent" points="1380,-565 1200,-565 1200,-497 1380,-497 1380,-565"/>
<text text-anchor="start" x="1202" y="-555.2" font-family="Roboto Light" font-size="11.00"> </text>
<text text-anchor="start" x="1206" y="-555.2" font-family="Roboto Light" font-weight="bold" font-size="11.00">2 scrapp_tripadvisor_base_list_poi</text>
<text text-anchor="start" x="1259.5" y="-544.2" font-family="Roboto Light" font-style="italic" font-size="11.00">module (.py)</text>
<text text-anchor="start" x="1233" y="-530.2" font-family="Roboto Light" font-size="11.00">Scrapp base list of POI</text>
<text text-anchor="start" x="1240" y="-516.2" font-family="Roboto Light" font-size="11.00">Transform extend df</text>
<text text-anchor="start" x="1227.5" y="-502.2" font-family="Roboto Light" font-size="11.00">Retrieve as df (name, url)</text>
<polygon fill="none" stroke="#3671a1" points="1200,-497 1200,-565 1380,-565 1380,-497 1200,-497"/>
</g>
<!-- 3 -->
<g id="node3" class="node">
<title>3</title>
<polygon fill="#c2f0ee" stroke="transparent" points="1228.5,-414 1063.5,-414 1063.5,-360 1228.5,-360 1228.5,-414"/>
<text text-anchor="start" x="1111.5" y="-404.2" font-family="Roboto Light" font-size="11.00"> </text>
<text text-anchor="start" x="1115.5" y="-404.2" font-family="Roboto Light" font-weight="bold" font-size="11.00">3 TripAdvisor</text>
<text text-anchor="start" x="1125" y="-393.2" font-family="Roboto Light" font-style="italic" font-size="11.00">Web app</text>
<text text-anchor="start" x="1066" y="-379.2" font-family="Roboto Light" font-size="11.00">Subpage things to do in Slovakia</text>
<text text-anchor="start" x="1098" y="-365.2" font-family="Roboto Light" font-size="11.00">Each POI&#39;s subpage</text>
<polygon fill="none" stroke="#c2f0ee" points="1063.5,-360 1063.5,-414 1228.5,-414 1228.5,-360 1063.5,-360"/>
</g>
<!-- 4 -->
<g id="node4" class="node">
<title>4</title>
<polygon fill="#ffd846" stroke="transparent" points="1376,-270 1204,-270 1204,-216 1376,-216 1376,-270"/>
<text text-anchor="start" x="1208" y="-260.2" font-family="Roboto Light" font-size="11.00"> </text>
<text text-anchor="start" x="1212" y="-260.2" font-family="Roboto Light" font-weight="bold" font-size="11.00">4 scrapp_tripadvisor_poi_details</text>
<text text-anchor="start" x="1259.5" y="-249.2" font-family="Roboto Light" font-style="italic" font-size="11.00">module (.py)</text>
<text text-anchor="start" x="1226.5" y="-235.2" font-family="Roboto Light" font-size="11.00">Scrapp each POI subpage</text>
<text text-anchor="start" x="1206" y="-221.2" font-family="Roboto Light" font-size="11.00">Retrieve each POI base data as df</text>
<polygon fill="none" stroke="#3671a1" points="1204,-216 1204,-270 1376,-270 1376,-216 1204,-216"/>
</g>
<!-- 5 -->
<g id="node5" class="node">
<title>5</title>
<polygon fill="#ffd846" stroke="transparent" points="276,-551 0,-551 0,-511 276,-511 276,-551"/>
<text text-anchor="start" x="2" y="-541.2" font-family="Roboto Light" font-size="11.00"> </text>
<text text-anchor="start" x="6" y="-541.2" font-family="Roboto Light" font-weight="bold" font-size="11.00">5 transform_add_municipality_region_tripadavisor_poi</text>
<text text-anchor="start" x="107.5" y="-530.2" font-family="Roboto Light" font-style="italic" font-size="11.00">module (.py)</text>
<text text-anchor="start" x="68.5" y="-516.2" font-family="Roboto Light" font-size="11.00">Add municipality and region</text>
<polygon fill="none" stroke="#3671a1" points="0,-511 0,-551 276,-551 276,-511 0,-511"/>
</g>
<!-- 6 -->
<g id="node6" class="node">
<title>6</title>
<polygon fill="#ffd846" stroke="transparent" points="208.5,-270 67.5,-270 67.5,-216 208.5,-216 208.5,-270"/>
<text text-anchor="start" x="94.5" y="-260.2" font-family="Roboto Light" font-size="11.00"> </text>
<text text-anchor="start" x="98.5" y="-260.2" font-family="Roboto Light" font-weight="bold" font-size="11.00">6 gglGeocodePoi</text>
<text text-anchor="start" x="108" y="-249.2" font-family="Roboto Light" font-style="italic" font-size="11.00">module (.py)</text>
<text text-anchor="start" x="70" y="-235.2" font-family="Roboto Light" font-size="11.00">Geocode POIs with address</text>
<text text-anchor="start" x="74.5" y="-221.2" font-family="Roboto Light" font-size="11.00">Retrive Google Maps data</text>
<polygon fill="none" stroke="#3671a1" points="67.5,-216 67.5,-270 208.5,-270 208.5,-216 67.5,-216"/>
</g>
<!-- 7 -->
<g id="node7" class="node">
<title>7</title>
<polygon fill="#ffd846" stroke="transparent" points="216.5,-54 59.5,-54 59.5,0 216.5,0 216.5,-54"/>
<text text-anchor="start" x="66" y="-44.2" font-family="Roboto Light" font-size="11.00"> </text>
<text text-anchor="start" x="70" y="-44.2" font-family="Roboto Light" font-weight="bold" font-size="11.00">7 gglGeocodePoiWOaddress</text>
<text text-anchor="start" x="108" y="-33.2" font-family="Roboto Light" font-style="italic" font-size="11.00">module (.py)</text>
<text text-anchor="start" x="62" y="-19.2" font-family="Roboto Light" font-size="11.00">Geocode POIs without address</text>
<text text-anchor="start" x="74.5" y="-5.2" font-family="Roboto Light" font-size="11.00">Retrive Google Maps data</text>
<polygon fill="none" stroke="#3671a1" points="59.5,0 59.5,-54 216.5,-54 216.5,0 59.5,0"/>
</g>
<!-- 8 -->
<g id="node8" class="node">
<title>8</title>
<polygon fill="#ffd846" stroke="transparent" points="1416,-47 1164,-47 1164,-7 1416,-7 1416,-47"/>
<text text-anchor="start" x="1216" y="-37.2" font-family="Roboto Light" font-size="11.00"> </text>
<text text-anchor="start" x="1220" y="-37.2" font-family="Roboto Light" font-weight="bold" font-size="11.00">8 get_gku_mun_id_for_ta_poi</text>
<text text-anchor="start" x="1259.5" y="-26.2" font-family="Roboto Light" font-style="italic" font-size="11.00">module (.py)</text>
<text text-anchor="start" x="1166" y="-12.2" font-family="Roboto Light" font-size="11.00">Check penetration with gku municipality geometry</text>
<polygon fill="none" stroke="#3671a1" points="1164,-7 1164,-47 1416,-47 1416,-7 1164,-7"/>
</g>
<!-- 10 -->
<g id="node9" class="node">
<title>10</title>
<polygon fill="#ffffff" stroke="transparent" points="836.5,-356 591.5,-356 591.5,-274 836.5,-274 836.5,-356"/>
<text text-anchor="start" x="668.5" y="-346.2" font-family="Roboto Light" font-size="11.00"> </text>
<text text-anchor="start" x="672.5" y="-346.2" font-family="Roboto Light" font-weight="bold" font-size="11.00">db_schema_gtlab</text>
<text text-anchor="start" x="659.5" y="-335.2" font-family="Roboto Light" font-style="italic" font-size="11.00">Database (PostGis DB)</text>
<text text-anchor="start" x="681.5" y="-322.2" font-family="Roboto Light" font-weight="bold" font-size="11.00">List of tables</text>
<text text-anchor="start" x="626.5" y="-307.2" font-family="Roboto Light" font-size="11.00">sk_pois_activities_tripadvisor_0723</text>
<text text-anchor="start" x="607" y="-293.2" font-family="Roboto Light" font-size="11.00">sk_pois_activities_tripadvisor_0723_details</text>
<text text-anchor="start" x="594" y="-279.2" font-family="Roboto Light" font-size="11.00">sk_pois_activities_tripadvisor_trp_categorization</text>
<polygon fill="none" stroke="#336791" points="591.5,-274 591.5,-356 836.5,-356 836.5,-274 591.5,-274"/>
</g>
<!-- 9 -->
<g id="node10" class="node">
<title>9</title>
<polygon fill="#ffffff" stroke="transparent" points="834,-47 594,-47 594,-7 834,-7 834,-47"/>
<text text-anchor="start" x="641" y="-37.2" font-family="Roboto Light" font-size="11.00"> </text>
<text text-anchor="start" x="645" y="-37.2" font-family="Roboto Light" font-weight="bold" font-size="11.00">sql_update_ta_poi_base_gku</text>
<text text-anchor="start" x="701.5" y="-26.2" font-family="Roboto Light" font-style="italic" font-size="11.00">(.sql)</text>
<text text-anchor="start" x="596" y="-12.2" font-family="Roboto Light" font-size="11.00">Manual SQL updates of geocoding irregularities</text>
<polygon fill="none" stroke="#336791" points="594,-7 594,-47 834,-47 834,-7 594,-7"/>
</g>
</g>
</svg>
