<?xml version="1.0" encoding="UTF-8" standalone="no"?>
<!DOCTYPE svg PUBLIC "-//W3C//DTD SVG 1.1//EN"
 "http://www.w3.org/Graphics/SVG/1.1/DTD/svg11.dtd">
<!-- Generated by graphviz version 2.50.0 (0)
 -->
<!-- Pages: 1 -->
<svg width="1097pt" height="370pt"
 viewBox="0.00 0.00 1096.56 369.53" xmlns="http://www.w3.org/2000/svg" xmlns:xlink="http://www.w3.org/1999/xlink">
<g id="graph0" class="graph" transform="scale(1 1) rotate(0) translate(4 365.53)">
<polygon fill="white" stroke="transparent" points="-4,4 -4,-365.53 1092.56,-365.53 1092.56,4 -4,4"/>
<!-- 1&#45;&gt;2 -->
<g id="edge1" class="edge">
<title>1:IETL&#45;&gt;2:call_wfs</title>
<polygon fill="black" stroke="transparent" points="228.56,-309.03 231.26,-309.02 239,-309.01 251.27,-309 267.54,-308.98 287.29,-308.96 310.01,-308.93 335.17,-308.9 362.25,-308.87 390.73,-308.83 420.09,-308.8 449.81,-308.76 479.37,-308.73 508.24,-308.69 535.92,-308.66 561.86,-308.63 585.56,-308.6 606.5,-308.58 624.15,-308.55 637.99,-308.54 647.5,-308.53 647.5,-308.53 637.99,-308.52 624.15,-308.5 606.5,-308.48 585.56,-308.45 561.86,-308.42 535.92,-308.39 508.24,-308.36 479.37,-308.33 449.81,-308.29 420.09,-308.26 390.73,-308.22 362.25,-308.19 335.17,-308.15 310.01,-308.12 287.29,-308.1 267.54,-308.07 251.27,-308.05 239,-308.04 231.26,-308.03 228.56,-308.03 228.56,-309.03"/>
<polygon fill="black" stroke="black" points="647.56,-310.28 652.56,-308.53 647.56,-306.78 647.56,-310.28"/>
<text text-anchor="middle" x="625.37" y="-318.41" font-family="Roboto Light" font-size="11.00">IE1&#45;&gt;2</text>
</g>
<!-- 1&#45;&gt;4 -->
<g id="edge12" class="edge">
<title>1:w&#45;&gt;4:w</title>
<polygon fill="black" stroke="transparent" points="5.95,-313.42 5.91,-313.24 5.8,-312.72 5.63,-311.87 5.4,-310.71 5.13,-309.28 4.83,-307.59 4.5,-305.67 4.17,-303.53 3.83,-301.2 3.5,-298.7 3.18,-296.06 2.9,-293.29 2.65,-290.42 2.44,-287.47 2.3,-284.47 2.22,-281.43 2.22,-278.38 2.31,-275.34 2.49,-272.33 2.78,-269.38 4.86,-254.27 7.48,-239.03 10.57,-223.72 14.09,-208.44 17.97,-193.26 22.14,-178.25 26.55,-163.5 31.15,-149.08 35.86,-135.07 40.62,-121.55 45.39,-108.6 50.09,-96.29 54.68,-84.7 59.07,-73.91 63.23,-64 67.08,-55.05 70.57,-47.13 73.63,-40.32 76.21,-34.7 78.24,-30.35 78.24,-30.35 76.19,-34.69 73.6,-40.3 70.51,-47.1 67,-55.01 63.11,-63.95 58.93,-73.85 54.49,-84.62 49.87,-96.2 45.12,-108.49 40.31,-121.44 35.5,-134.95 30.74,-148.95 26.09,-163.36 21.63,-178.1 17.4,-193.11 13.47,-208.29 9.9,-223.58 6.74,-238.89 4.07,-254.15 1.94,-269.28 1.64,-272.26 1.44,-275.3 1.34,-278.36 1.33,-281.44 1.4,-284.5 1.53,-287.52 1.73,-290.49 1.97,-293.37 2.25,-296.16 2.55,-298.82 2.88,-301.33 3.21,-303.67 3.54,-305.82 3.86,-307.76 4.16,-309.46 4.43,-310.9 4.65,-312.06 4.82,-312.92 4.93,-313.45 4.97,-313.63 5.95,-313.42"/>
<polygon fill="black" stroke="black" points="79.97,-30.79 80.56,-25.53 76.82,-29.28 79.97,-30.79"/>
<text text-anchor="middle" x="80.21" y="-52.72" font-family="Roboto Light" font-size="11.00">IT&#45;&gt;4</text>
</g>
<!-- 1&#45;&gt;10 -->
<g id="edge7" class="edge">
<title>1:gpdf_from_wfs&#45;&gt;10:sk_mchu_sps_sopsr</title>
<path fill="none" stroke="black" d="M228.56,-280.53C228.56,-280.53 526.75,-166.44 568.68,-150.39"/>
<polygon fill="black" stroke="black" points="569.52,-151.95 573.56,-148.53 568.27,-148.68 569.52,-151.95"/>
<text text-anchor="middle" x="382.69" y="-217.88" font-family="Roboto Light" font-size="12.00">L1&#45;&gt;10</text>
</g>
<!-- 1&#45;&gt;10 -->
<g id="edge8" class="edge">
<title>1:gpdf_from_wfs&#45;&gt;10:sk_vchu_lps_sopsr</title>
<path fill="none" stroke="black" d="M228.56,-280.53C228.56,-280.53 528.01,-153.81 568.94,-136.48"/>
<polygon fill="black" stroke="black" points="569.64,-138.09 573.56,-134.53 568.27,-134.86 569.64,-138.09"/>
</g>
<!-- 1&#45;&gt;10 -->
<g id="edge9" class="edge">
<title>1:gpdf_from_wfs&#45;&gt;10:sk_np_w_pz_sopsr</title>
<path fill="none" stroke="black" d="M228.56,-280.53C228.56,-280.53 528.01,-141.65 568.94,-122.67"/>
<polygon fill="black" stroke="black" points="569.76,-124.22 573.56,-120.53 568.29,-121.04 569.76,-124.22"/>
</g>
<!-- 1&#45;&gt;10 -->
<g id="edge10" class="edge">
<title>1:gpdf_from_wfs&#45;&gt;10:sk_uev_teui_sopsr</title>
<path fill="none" stroke="black" d="M228.56,-280.53C228.56,-280.53 528.01,-129.5 568.94,-108.86"/>
<polygon fill="black" stroke="black" points="569.88,-110.34 573.56,-106.53 568.31,-107.22 569.88,-110.34"/>
</g>
<!-- 1&#45;&gt;10 -->
<g id="edge11" class="edge">
<title>1:gpdf_from_wfs&#45;&gt;10:sk_chvu_bpa_sopsr</title>
<path fill="none" stroke="black" d="M228.56,-280.53C228.56,-280.53 528.01,-117.35 568.94,-95.04"/>
<polygon fill="black" stroke="black" points="570.01,-96.46 573.56,-92.53 568.33,-93.38 570.01,-96.46"/>
</g>
<!-- 2&#45;&gt;3 -->
<g id="edge2" class="edge">
<title>2:call_wfs&#45;&gt;3:mchu</title>
<path fill="none" stroke="black" stroke-dasharray="5,2" d="M735.56,-308.53C735.56,-308.53 845.64,-325.04 870.58,-328.78"/>
<polygon fill="black" stroke="black" points="870.36,-330.52 875.56,-329.53 870.88,-327.05 870.36,-330.52"/>
<text text-anchor="middle" x="790.67" y="-322.44" font-family="Roboto Light" font-size="12.00">E2&#45;&gt;3</text>
</g>
<!-- 2&#45;&gt;3 -->
<g id="edge3" class="edge">
<title>2:call_wfs&#45;&gt;3:vchu</title>
<path fill="none" stroke="black" stroke-dasharray="5,2" d="M735.56,-308.53C735.56,-308.53 844.67,-313.98 870.24,-315.26"/>
<polygon fill="black" stroke="black" points="870.48,-317.03 875.56,-315.53 870.65,-313.53 870.48,-317.03"/>
</g>
<!-- 2&#45;&gt;3 -->
<g id="edge4" class="edge">
<title>2:call_wfs&#45;&gt;3:np_s_op</title>
<path fill="none" stroke="black" stroke-dasharray="5,2" d="M735.56,-308.53C735.56,-308.53 844.67,-303.07 870.24,-301.79"/>
<polygon fill="black" stroke="black" points="870.65,-303.52 875.56,-301.53 870.48,-300.03 870.65,-303.52"/>
</g>
<!-- 2&#45;&gt;3 -->
<g id="edge5" class="edge">
<title>2:call_wfs&#45;&gt;3:uev</title>
<path fill="none" stroke="black" stroke-dasharray="5,2" d="M735.56,-308.53C735.56,-308.53 845.64,-292.02 870.58,-288.27"/>
<polygon fill="black" stroke="black" points="870.88,-290 875.56,-287.53 870.36,-286.54 870.88,-290"/>
</g>
<!-- 2&#45;&gt;3 -->
<g id="edge6" class="edge">
<title>2:call_wfs&#45;&gt;3:chvu</title>
<path fill="none" stroke="black" stroke-dasharray="5,2" d="M735.56,-308.53C735.56,-308.53 845.64,-281.01 870.58,-274.77"/>
<polygon fill="black" stroke="black" points="871.13,-276.44 875.56,-273.53 870.29,-273.04 871.13,-276.44"/>
</g>
<!-- 4&#45;&gt;10 -->
<g id="edge13" class="edge">
<title>4:assigin_sopsr_id&#45;&gt;10:aobjectid_sk_mchu_sps_sopsr</title>
<path fill="none" stroke="black" stroke-dasharray="1,5" d="M297.56,-13.53C297.56,-13.53 530.14,-56.5 568.29,-63.55"/>
<polygon fill="black" stroke="black" points="568.33,-65.34 573.56,-64.53 568.96,-61.9 568.33,-65.34"/>
<text text-anchor="middle" x="326.6" y="-3.2" font-family="Roboto Light" font-size="11.00">T4&#45;&gt;10</text>
</g>
<!-- 4&#45;&gt;10 -->
<g id="edge14" class="edge">
<title>4:assigin_sopsr_id&#45;&gt;10:asiteid_sk_vchu_lps_sopsr</title>
<path fill="none" stroke="black" stroke-dasharray="1,5" d="M297.56,-13.53C297.56,-13.53 530.14,-44.71 568.29,-49.82"/>
<polygon fill="black" stroke="black" points="568.37,-51.6 573.56,-50.53 568.84,-48.13 568.37,-51.6"/>
</g>
<!-- 4&#45;&gt;10 -->
<g id="edge15" class="edge">
<title>4:assigin_sopsr_id&#45;&gt;10:agml_id_sk_np_w_pz_sopsr</title>
<path fill="none" stroke="black" stroke-dasharray="1,5" d="M297.56,-13.53C297.56,-13.53 530.14,-32.91 568.29,-36.09"/>
<polygon fill="black" stroke="black" points="568.43,-37.86 573.56,-36.53 568.72,-34.37 568.43,-37.86"/>
</g>
<!-- 4&#45;&gt;10 -->
<g id="edge16" class="edge">
<title>4:assigin_sopsr_id&#45;&gt;10:asiteid_sk_uev_teui_sopsr</title>
<path fill="none" stroke="black" stroke-dasharray="1,5" d="M297.56,-13.53C297.56,-13.53 530.14,-21.11 568.29,-22.36"/>
<polygon fill="black" stroke="black" points="568.51,-24.11 573.56,-22.53 568.62,-20.61 568.51,-24.11"/>
</g>
<!-- 4&#45;&gt;10 -->
<g id="edge17" class="edge">
<title>4:assigin_sopsr_id&#45;&gt;10:asiteid_sk_chvu_bpa_sopsr</title>
<path fill="none" stroke="black" stroke-dasharray="1,5" d="M297.56,-13.53C297.56,-13.53 530.14,-9.31 568.29,-8.62"/>
<polygon fill="black" stroke="black" points="568.59,-10.37 573.56,-8.53 568.53,-6.87 568.59,-10.37"/>
</g>
<!-- 1 -->
<g id="node1" class="node">
<title>1</title>
<polygon fill="#f37726" stroke="transparent" points="229.56,-354.53 5.56,-354.53 5.56,-272.53 229.56,-272.53 229.56,-354.53"/>
<text text-anchor="start" x="78.56" y="-344.73" font-family="Roboto Light" font-size="11.00"> </text>
<text text-anchor="start" x="82.56" y="-344.73" font-family="Roboto Light" font-weight="bold" font-size="11.00">1 main_SOPSR</text>
<text text-anchor="start" x="58.56" y="-333.73" font-family="Roboto Light" font-style="italic" font-size="11.00">1 Main controler (.ipynb)</text>
<text text-anchor="start" x="26.56" y="-319.73" font-family="Roboto Light" font-size="11.00">Used for invoking individual modules</text>
<text text-anchor="start" x="7.56" y="-305.73" font-family="Roboto Light" font-size="11.00">Extract (E), Transform (T), Load (L), Invoke (I)</text>
<text text-anchor="start" x="88.56" y="-292.73" font-family="Roboto Light" font-weight="bold" font-size="11.00">List of DFs:</text>
<text text-anchor="start" x="80.56" y="-277.73" font-family="Roboto Light" font-size="11.00">gpdf from WFS</text>
<polygon fill="none" stroke="#616262" points="5.56,-272.53 5.56,-354.53 229.56,-354.53 229.56,-272.53 5.56,-272.53"/>
</g>
<!-- 2 -->
<g id="node2" class="node">
<title>2</title>
<polygon fill="#ffd846" stroke="transparent" points="736.06,-340.53 651.06,-340.53 651.06,-286.53 736.06,-286.53 736.06,-340.53"/>
<text text-anchor="start" x="666.56" y="-330.73" font-family="Roboto Light" font-size="11.00"> </text>
<text text-anchor="start" x="670.56" y="-330.73" font-family="Roboto Light" font-weight="bold" font-size="11.00">2 call_wfs</text>
<text text-anchor="start" x="663.56" y="-319.73" font-family="Roboto Light" font-style="italic" font-size="11.00">module (.py)</text>
<text text-anchor="start" x="671.06" y="-305.73" font-family="Roboto Light" font-size="11.00">Call WFS</text>
<text text-anchor="start" x="653.56" y="-291.73" font-family="Roboto Light" font-size="11.00">Retrieve as gpdf</text>
<polygon fill="none" stroke="#3671a1" points="651.06,-286.53 651.06,-340.53 736.06,-340.53 736.06,-286.53 651.06,-286.53"/>
</g>
<!-- 3 -->
<g id="node3" class="node">
<title>3</title>
<polygon fill="#c2f0ee" stroke="transparent" points="1088.56,-361.53 874.56,-361.53 874.56,-265.53 1088.56,-265.53 1088.56,-361.53"/>
<text text-anchor="start" x="930.56" y="-351.73" font-family="Roboto Light" font-size="11.00"> </text>
<text text-anchor="start" x="934.56" y="-351.73" font-family="Roboto Light" font-weight="bold" font-size="11.00">3 SOPSR Geoserver</text>
<text text-anchor="start" x="932.56" y="-340.73" font-family="Roboto Light" font-style="italic" font-size="11.00">WFS service (layers)</text>
<text text-anchor="start" x="876.56" y="-326.73" font-family="Roboto Light" font-size="11.00">chranene_objekty:chranene_uzemia_mchu</text>
<text text-anchor="start" x="879.06" y="-312.73" font-family="Roboto Light" font-size="11.00">chranene_objekty:chranene_uzemia_vchu</text>
<text text-anchor="start" x="907.56" y="-298.73" font-family="Roboto Light" font-size="11.00">sz:chranene_uzemia_np_s_op</text>
<text text-anchor="start" x="882.06" y="-284.73" font-family="Roboto Light" font-size="11.00">chranene_objekty:chranene_uzemia_uev</text>
<text text-anchor="start" x="879.06" y="-270.73" font-family="Roboto Light" font-size="11.00">chranene_objekty:chranene_uzemia_chvu</text>
<polygon fill="none" stroke="#c2f0ee" points="874.56,-265.53 874.56,-361.53 1088.56,-361.53 1088.56,-265.53 874.56,-265.53"/>
</g>
<!-- 4 -->
<g id="node4" class="node">
<title>4</title>
<polygon fill="#ffd846" stroke="transparent" points="298.06,-45.53 81.06,-45.53 81.06,-5.53 298.06,-5.53 298.06,-45.53"/>
<text text-anchor="start" x="148.56" y="-35.73" font-family="Roboto Light" font-size="11.00"> </text>
<text text-anchor="start" x="152.56" y="-35.73" font-family="Roboto Light" font-weight="bold" font-size="11.00">4 get_sopsr_ids</text>
<text text-anchor="start" x="159.56" y="-24.73" font-family="Roboto Light" font-style="italic" font-size="11.00">module (.py)</text>
<text text-anchor="start" x="83.56" y="-10.73" font-family="Roboto Light" font-size="11.00">Assign each SGS relation to Protected Site</text>
<polygon fill="none" stroke="#3671a1" points="81.06,-5.53 81.06,-45.53 298.06,-45.53 298.06,-5.53 81.06,-5.53"/>
</g>
<!-- 10 -->
<g id="node5" class="node">
<title>10</title>
<polygon fill="#ffffff" stroke="transparent" points="814.56,-194.53 572.56,-194.53 572.56,-0.53 814.56,-0.53 814.56,-194.53"/>
<text text-anchor="start" x="647.56" y="-184.73" font-family="Roboto Light" font-size="11.00"> </text>
<text text-anchor="start" x="651.56" y="-184.73" font-family="Roboto Light" font-weight="bold" font-size="11.00">db_schema_gtlab</text>
<text text-anchor="start" x="638.56" y="-173.73" font-family="Roboto Light" font-style="italic" font-size="11.00">Database (PostGis DB)</text>
<text text-anchor="start" x="660.56" y="-160.73" font-family="Roboto Light" font-weight="bold" font-size="11.00">List of tables</text>
<text text-anchor="start" x="643.06" y="-145.73" font-family="Roboto Light" font-size="11.00">sk_mchu_sps_sopsr</text>
<text text-anchor="start" x="646.56" y="-131.73" font-family="Roboto Light" font-size="11.00">sk_vchu_lps_sopsr</text>
<text text-anchor="start" x="647.56" y="-117.73" font-family="Roboto Light" font-size="11.00">sk_np_w_pz_sopsr</text>
<text text-anchor="start" x="648.06" y="-103.73" font-family="Roboto Light" font-size="11.00">sk_uev_teui_sopsr</text>
<text text-anchor="start" x="645.06" y="-89.73" font-family="Roboto Light" font-size="11.00">sk_chvu_bpa_sopsr</text>
<text text-anchor="start" x="626.56" y="-76.73" font-family="Roboto Light" font-weight="bold" font-size="11.00">List of a joinable attributes</text>
<text text-anchor="start" x="574.56" y="-61.73" font-family="Roboto Light" font-size="11.00">sk_sgs_vgl_sguds.objectid_sk_mchu_sps_sopsr</text>
<text text-anchor="start" x="584.06" y="-47.73" font-family="Roboto Light" font-size="11.00">sk_sgs_vgl_sguds.siteid_sk_vchu_lps_sopsr</text>
<text text-anchor="start" x="582.06" y="-33.73" font-family="Roboto Light" font-size="11.00">sk_sgs_vgl_sguds.gml_id_sk_np_w_pz_sopsr</text>
<text text-anchor="start" x="585.06" y="-19.73" font-family="Roboto Light" font-size="11.00">sk_sgs_vgl_sguds.siteid_sk_uev_teui_sopsr</text>
<text text-anchor="start" x="582.56" y="-5.73" font-family="Roboto Light" font-size="11.00">sk_sgs_vgl_sguds.siteid_sk_chvu_bpa_sopsr</text>
<polygon fill="none" stroke="#336791" points="572.56,-0.53 572.56,-194.53 814.56,-194.53 814.56,-0.53 572.56,-0.53"/>
</g>
</g>
</svg>
