<?xml version="1.0" encoding="UTF-8" standalone="no"?>
<!DOCTYPE svg PUBLIC "-//W3C//DTD SVG 1.1//EN"
 "http://www.w3.org/Graphics/SVG/1.1/DTD/svg11.dtd">
<!-- Generated by graphviz version 2.50.0 (0)
 -->
<!-- Pages: 1 -->
<svg width="1201pt" height="522pt"
 viewBox="0.00 0.00 1201.34 522.00" xmlns="http://www.w3.org/2000/svg" xmlns:xlink="http://www.w3.org/1999/xlink">
<g id="graph0" class="graph" transform="scale(1 1) rotate(0) translate(4 518)">
<polygon fill="white" stroke="transparent" points="-4,4 -4,-518 1197.34,-518 1197.34,4 -4,4"/>
<!-- 1&#45;&gt;2 -->
<g id="edge1" class="edge">
<title>1:IETL&#45;&gt;2:call_mapserver</title>
<polygon fill="black" stroke="transparent" points="229.64,-468.5 233.14,-468.5 243.18,-468.49 259.07,-468.47 280.15,-468.45 305.72,-468.43 335.11,-468.4 367.63,-468.37 402.6,-468.34 439.35,-468.3 477.18,-468.27 515.43,-468.23 553.4,-468.2 590.42,-468.16 625.8,-468.13 658.87,-468.1 688.94,-468.07 715.34,-468.05 737.37,-468.03 754.36,-468.01 765.63,-468 765.63,-468 754.36,-467.99 737.37,-467.97 715.34,-467.95 688.94,-467.93 658.87,-467.9 625.8,-467.87 590.42,-467.84 553.4,-467.8 515.43,-467.77 477.18,-467.73 439.35,-467.7 402.6,-467.66 367.63,-467.63 335.11,-467.6 305.72,-467.57 280.15,-467.55 259.07,-467.53 243.18,-467.51 233.14,-467.5 229.64,-467.5 229.64,-468.5"/>
<polygon fill="black" stroke="black" points="765.64,-469.75 770.64,-468 765.64,-466.25 765.64,-469.75"/>
<text text-anchor="middle" x="743.45" y="-477.88" font-family="Roboto Light" font-size="11.00">IE1&#45;&gt;2</text>
</g>
<!-- 1&#45;&gt;3 -->
<g id="edge2" class="edge">
<title>1:IETL&#45;&gt;3:scrap_web_app</title>
<polygon fill="black" stroke="transparent" points="229.77,-468.48 233.16,-467.59 242.9,-465.04 258.32,-461 278.77,-455.65 303.58,-449.15 332.09,-441.68 363.64,-433.42 397.57,-424.53 433.22,-415.19 469.93,-405.57 507.03,-395.85 543.88,-386.2 579.79,-376.8 614.12,-367.8 646.2,-359.4 675.38,-351.76 700.98,-345.05 722.36,-339.45 738.85,-335.13 749.78,-332.27 749.78,-332.27 738.84,-335.11 722.35,-339.4 700.96,-344.96 675.34,-351.62 646.15,-359.21 614.06,-367.55 579.71,-376.48 543.78,-385.82 506.92,-395.4 469.79,-405.05 433.07,-414.6 397.4,-423.87 363.45,-432.7 331.89,-440.9 303.36,-448.32 278.54,-454.77 258.08,-460.09 242.65,-464.1 232.91,-466.63 229.51,-467.52 229.77,-468.48"/>
<polygon fill="black" stroke="black" points="750.24,-333.96 754.64,-331 749.36,-330.57 750.24,-333.96"/>
<text text-anchor="middle" x="739.24" y="-340.96" font-family="Roboto Light" font-size="11.00">IE1&#45;&gt;3</text>
</g>
<!-- 1&#45;&gt;6 -->
<g id="edge12" class="edge">
<title>1:w&#45;&gt;6:st_srid_transform</title>
<path fill="none" stroke="black" stroke-dasharray="1,5" d="M6.54,-473C6.54,-473 0,-448.19 3.44,-428.8 21.23,-328.52 90.78,-220.62 105.78,-198.21"/>
<polygon fill="black" stroke="black" points="107.28,-199.12 108.64,-194 104.38,-197.15 107.28,-199.12"/>
<text text-anchor="middle" x="102.26" y="-230.39" font-family="Roboto Light" font-size="12.00">IT1&#45;&gt;6</text>
</g>
<!-- 1&#45;&gt;7 -->
<g id="edge13" class="edge">
<title>1:w&#45;&gt;7:w</title>
<path fill="none" stroke="black" stroke-dasharray="1,5" d="M6.54,-473C6.54,-473 1.67,-448.41 3.44,-428.8 18.03,-267.54 88.24,-78.58 100.74,-45.92"/>
<polygon fill="black" stroke="black" points="102.47,-46.29 102.64,-41 99.2,-45.03 102.47,-46.29"/>
<text text-anchor="middle" x="105.99" y="-87.79" font-family="Roboto Light" font-size="12.00">IT1&#45;&gt;7</text>
</g>
<!-- 1&#45;&gt;10 -->
<g id="edge6" class="edge">
<title>1:gpdf_from_arcgis&#45;&gt;10:sk_sgs_vgl_sguds</title>
<path fill="none" stroke="black" d="M229.64,-440C229.64,-440 419.24,-305.17 450.35,-283.05"/>
<polygon fill="black" stroke="black" points="451.58,-284.32 454.64,-280 449.55,-281.47 451.58,-284.32"/>
<text text-anchor="middle" x="323.71" y="-363.35" font-family="Roboto Light" font-size="12.00">L1&#45;&gt;10</text>
</g>
<!-- 2&#45;&gt;1 -->
<g id="edge5" class="edge">
<title>2:retrieve_gpdf&#45;&gt;1:gpdf_from_arcgis</title>
<path fill="none" stroke="black" d="M770.64,-454C770.64,-454 289.19,-441.54 234.65,-440.13"/>
<polygon fill="black" stroke="black" points="234.68,-438.38 229.64,-440 234.59,-441.88 234.68,-438.38"/>
<text text-anchor="middle" x="484.95" y="-450.39" font-family="Roboto Light" font-size="12.00">L2&#45;&gt;1</text>
</g>
<!-- 2&#45;&gt;4 -->
<g id="edge3" class="edge">
<title>2:call_mapserver&#45;&gt;4:sguds_rest</title>
<path fill="none" stroke="black" stroke-dasharray="5,2" d="M906.64,-468C906.64,-468 1047.9,-462.35 1076.59,-461.2"/>
<polygon fill="black" stroke="black" points="1076.71,-462.95 1081.64,-461 1076.57,-459.45 1076.71,-462.95"/>
<text text-anchor="middle" x="979.17" y="-467.9" font-family="Roboto Light" font-size="12.00">E2&#45;&gt;4</text>
</g>
<!-- 3&#45;&gt;5 -->
<g id="edge4" class="edge">
<title>3:scrap_web_app&#45;&gt;5:vgl_web_app</title>
<path fill="none" stroke="black" stroke-dasharray="5,2" d="M922.64,-331C922.64,-331 1044.16,-329.41 1070.74,-329.07"/>
<polygon fill="black" stroke="black" points="1070.86,-330.82 1075.84,-329 1070.82,-327.32 1070.86,-330.82"/>
<text text-anchor="middle" x="984.06" y="-333.4" font-family="Roboto Light" font-size="12.00">E3&#45;&gt;5</text>
</g>
<!-- 3&#45;&gt;10 -->
<g id="edge7" class="edge">
<title>3:store_sgs_gpdf&#45;&gt;10:sk_sgs_vgl_sguds_details</title>
<path fill="none" stroke="black" d="M754.64,-303C754.64,-303 672.69,-274.92 651.56,-267.69"/>
<polygon fill="black" stroke="black" points="651.94,-265.97 646.64,-266 650.8,-269.28 651.94,-265.97"/>
<text text-anchor="middle" x="682.11" y="-287.89" font-family="Roboto Light" font-size="12.00">L3&#45;&gt;10</text>
</g>
<!-- 6&#45;&gt;10 -->
<g id="edge8" class="edge">
<title>6:store_municipalities_id&#45;&gt;10:sk_sgs_vgl_municipality_ids</title>
<path fill="none" stroke="black" d="M273.64,-166C273.64,-166 421.01,-236.02 449.8,-249.7"/>
<polygon fill="black" stroke="black" points="449.37,-251.43 454.64,-252 450.88,-248.27 449.37,-251.43"/>
<text text-anchor="middle" x="345.3" y="-212.24" font-family="Roboto Light" font-size="12.00">L6&#45;&gt;10</text>
</g>
<!-- 6&#45;&gt;10 -->
<g id="edge10" class="edge">
<title>6:update_municipalities_id&#45;&gt;10:col_sk_sgs_vgl_municipality_ids</title>
<path fill="none" stroke="black" stroke-dasharray="1,5" d="M273.64,-152C273.64,-152 421.01,-199.23 449.8,-208.45"/>
<polygon fill="black" stroke="black" points="449.34,-210.14 454.64,-210 450.41,-206.81 449.34,-210.14"/>
<text text-anchor="middle" x="424.88" y="-210.68" font-family="Roboto Light" font-size="12.00">T6&#45;&gt;10</text>
</g>
<!-- 7&#45;&gt;10 -->
<g id="edge9" class="edge">
<title>7:store_dmo_id&#45;&gt;10:sk_sgs_vgl_dmo_ids</title>
<path fill="none" stroke="black" d="M277.64,-22C277.64,-22 426.79,-204.02 451.26,-233.88"/>
<polygon fill="black" stroke="black" points="450.12,-235.24 454.64,-238 452.82,-233.02 450.12,-235.24"/>
<text text-anchor="middle" x="347.7" y="-133.47" font-family="Roboto Light" font-size="12.00">L7&#45;&gt;10</text>
</g>
<!-- 7&#45;&gt;10 -->
<g id="edge11" class="edge">
<title>7:update_dmo_id&#45;&gt;10:col_sk_sgs_vgl_dmo_ids</title>
<path fill="none" stroke="black" stroke-dasharray="1,5" d="M277.64,-8C277.64,-8 425.53,-165.08 450.94,-192.07"/>
<polygon fill="black" stroke="black" points="449.94,-193.56 454.64,-196 452.49,-191.16 449.94,-193.56"/>
<text text-anchor="middle" x="417.48" y="-178.09" font-family="Roboto Light" font-size="12.00">T7&#45;&gt;10</text>
</g>
<!-- 1 -->
<g id="node1" class="node">
<title>1</title>
<polygon fill="#f37726" stroke="transparent" points="230.64,-514 6.64,-514 6.64,-432 230.64,-432 230.64,-514"/>
<text text-anchor="start" x="67.14" y="-504.2" font-family="Roboto Light" font-size="11.00"> </text>
<text text-anchor="start" x="71.14" y="-504.2" font-family="Roboto Light" font-weight="bold" font-size="11.00">1 main_SGUDS_sgs</text>
<text text-anchor="start" x="59.64" y="-493.2" font-family="Roboto Light" font-style="italic" font-size="11.00">1 Main controler (.ipynb)</text>
<text text-anchor="start" x="27.64" y="-479.2" font-family="Roboto Light" font-size="11.00">Used for invoking individual modules</text>
<text text-anchor="start" x="8.64" y="-465.2" font-family="Roboto Light" font-size="11.00">Extract (E), Transform (T), Load (L), Invoke (I)</text>
<text text-anchor="start" x="89.64" y="-452.2" font-family="Roboto Light" font-weight="bold" font-size="11.00">List of DFs:</text>
<text text-anchor="start" x="75.14" y="-437.2" font-family="Roboto Light" font-size="11.00">gpdf_from_arcgis</text>
<polygon fill="none" stroke="#616262" points="6.64,-432 6.64,-514 230.64,-514 230.64,-432 6.64,-432"/>
</g>
<!-- 2 -->
<g id="node2" class="node">
<title>2</title>
<polygon fill="#ffd846" stroke="transparent" points="907.64,-500 769.64,-500 769.64,-446 907.64,-446 907.64,-500"/>
<text text-anchor="start" x="771.64" y="-490.2" font-family="Roboto Light" font-size="11.00"> </text>
<text text-anchor="start" x="775.64" y="-490.2" font-family="Roboto Light" font-weight="bold" font-size="11.00">2 call_arcgis_rest_service</text>
<text text-anchor="start" x="808.14" y="-479.2" font-family="Roboto Light" font-style="italic" font-size="11.00">module (.py)</text>
<text text-anchor="start" x="776.14" y="-465.2" font-family="Roboto Light" font-size="11.00">Call ArcGIS REST service</text>
<text text-anchor="start" x="798.14" y="-451.2" font-family="Roboto Light" font-size="11.00">Retrieve as gpdf</text>
<polygon fill="none" stroke="#3671a1" points="769.64,-446 769.64,-500 907.64,-500 907.64,-446 769.64,-446"/>
</g>
<!-- 3 -->
<g id="node3" class="node">
<title>3</title>
<polygon fill="#ffd846" stroke="transparent" points="923.64,-363 753.64,-363 753.64,-295 923.64,-295 923.64,-363"/>
<text text-anchor="start" x="787.14" y="-353.2" font-family="Roboto Light" font-size="11.00"> </text>
<text text-anchor="start" x="791.14" y="-353.2" font-family="Roboto Light" font-weight="bold" font-size="11.00">3 scrappSGUDS_vgl</text>
<text text-anchor="start" x="808.14" y="-342.2" font-family="Roboto Light" font-style="italic" font-size="11.00">module (.py)</text>
<text text-anchor="start" x="755.64" y="-328.2" font-family="Roboto Light" font-size="11.00">Scrapp SGS details from web app</text>
<text text-anchor="start" x="784.64" y="-314.2" font-family="Roboto Light" font-size="11.00">Retrieve structured df</text>
<text text-anchor="start" x="810.64" y="-300.2" font-family="Roboto Light" font-size="11.00">Store in DB</text>
<polygon fill="none" stroke="#3671a1" points="753.64,-295 753.64,-363 923.64,-363 923.64,-295 753.64,-295"/>
</g>
<!-- 4 -->
<g id="node4" class="node">
<title>4</title>
<polygon fill="#c2f0ee" stroke="transparent" points="1172.64,-493 1080.64,-493 1080.64,-453 1172.64,-453 1172.64,-493"/>
<text text-anchor="start" x="1101.64" y="-483.2" font-family="Roboto Light" font-size="11.00"> </text>
<text text-anchor="start" x="1105.64" y="-483.2" font-family="Roboto Light" font-weight="bold" font-size="11.00">4 ŠGÚDŠ</text>
<text text-anchor="start" x="1083.14" y="-472.2" font-family="Roboto Light" font-style="italic" font-size="11.00">ArcGIS mapserver</text>
<text text-anchor="start" x="1082.64" y="-458.2" font-family="Roboto Light" font-size="11.00">VGL REST service</text>
<polygon fill="none" stroke="#c2f0ee" points="1080.64,-453 1080.64,-493 1172.64,-493 1172.64,-453 1080.64,-453"/>
</g>
<!-- 5 -->
<g id="node5" class="node">
<title>5</title>
<polygon fill="#c2f0ee" stroke="transparent" points="1193.34,-351 1074.34,-351 1074.34,-307 1193.34,-307 1193.34,-351"/>
<text text-anchor="start" x="1101.34" y="-341.2" font-family="Roboto Light" font-size="11.00"> </text>
<text text-anchor="start" x="1105.34" y="-341.2" font-family="Roboto Light" font-weight="bold" font-size="11.00">5 geology.sk</text>
<text text-anchor="start" x="1098.84" y="-327.2" font-family="Roboto Light" font-size="11.00"> </text>
<text text-anchor="start" x="1102.84" y="-327.2" font-family="Roboto Light" font-style="italic" font-size="11.00">VGL Web App</text>
<text text-anchor="start" x="1076.84" y="-312.2" font-family="Roboto Light" font-size="11.00">Registry of SGS details</text>
<polygon fill="none" stroke="#c2f0ee" points="1074.34,-307 1074.34,-351 1193.34,-351 1193.34,-307 1074.34,-307"/>
</g>
<!-- 6 -->
<g id="node6" class="node">
<title>6</title>
<polygon fill="#ffd846" stroke="transparent" points="274.14,-226 107.14,-226 107.14,-144 274.14,-144 274.14,-226"/>
<text text-anchor="start" x="134.14" y="-216.2" font-family="Roboto Light" font-size="11.00"> </text>
<text text-anchor="start" x="138.14" y="-216.2" font-family="Roboto Light" font-weight="bold" font-size="11.00">6 Identify municipality</text>
<text text-anchor="start" x="109.64" y="-205.2" font-family="Roboto Light" font-style="italic" font-size="11.00">module (.py) module (.py) for SQL</text>
<text text-anchor="start" x="151.64" y="-191.2" font-family="Roboto Light" font-size="11.00">Transform SRID</text>
<text text-anchor="start" x="109.64" y="-177.2" font-family="Roboto Light" font-size="11.00">Get municipalities ID via Postgis</text>
<text text-anchor="start" x="114.14" y="-163.2" font-family="Roboto Light" font-size="11.00">Store municipalities ID for SGS</text>
<text text-anchor="start" x="109.64" y="-149.2" font-family="Roboto Light" font-size="11.00">Update municipalities ID for SGS</text>
<polygon fill="none" stroke="#3671a1" points="107.14,-144 107.14,-226 274.14,-226 274.14,-144 107.14,-144"/>
</g>
<!-- 7 -->
<g id="node7" class="node">
<title>7</title>
<polygon fill="#ffd846" stroke="transparent" points="278.64,-82 102.64,-82 102.64,0 278.64,0 278.64,-82"/>
<text text-anchor="start" x="151.64" y="-72.2" font-family="Roboto Light" font-size="11.00"> </text>
<text text-anchor="start" x="155.64" y="-72.2" font-family="Roboto Light" font-weight="bold" font-size="11.00">7 Identify DMO</text>
<text text-anchor="start" x="140.64" y="-61.2" font-family="Roboto Light" font-style="italic" font-size="11.00">module (.py) for SQL</text>
<text text-anchor="start" x="151.14" y="-47.2" font-family="Roboto Light" font-size="11.00">Transform SRID</text>
<text text-anchor="start" x="161.14" y="-33.2" font-family="Roboto Light" font-size="11.00">Get DMO ID</text>
<text text-anchor="start" x="140.64" y="-19.2" font-family="Roboto Light" font-size="11.00">Store SGS&#39;s DMO ID</text>
<text text-anchor="start" x="104.64" y="-5.2" font-family="Roboto Light" font-size="11.00">Update DMO ID via municipality ID</text>
<polygon fill="none" stroke="#3671a1" points="102.64,0 102.64,-82 278.64,-82 278.64,0 102.64,0"/>
</g>
<!-- 10 -->
<g id="node8" class="node">
<title>10</title>
<polygon fill="#ffffff" stroke="transparent" points="647.64,-326 453.64,-326 453.64,-188 647.64,-188 647.64,-326"/>
<text text-anchor="start" x="504.64" y="-316.2" font-family="Roboto Light" font-size="11.00"> </text>
<text text-anchor="start" x="508.64" y="-316.2" font-family="Roboto Light" font-weight="bold" font-size="11.00">db_schema_gtlab</text>
<text text-anchor="start" x="495.64" y="-305.2" font-family="Roboto Light" font-style="italic" font-size="11.00">Database (PostGis DB)</text>
<text text-anchor="start" x="517.64" y="-292.2" font-family="Roboto Light" font-weight="bold" font-size="11.00">List of tables</text>
<text text-anchor="start" x="505.64" y="-277.2" font-family="Roboto Light" font-size="11.00">sk_sgs_vgl_sguds</text>
<text text-anchor="start" x="486.14" y="-263.2" font-family="Roboto Light" font-size="11.00">sk_sgs_vgl_sguds_details</text>
<text text-anchor="start" x="480.14" y="-249.2" font-family="Roboto Light" font-size="11.00">sk_sgs_vgl_municipality_ids</text>
<text text-anchor="start" x="499.64" y="-235.2" font-family="Roboto Light" font-size="11.00">sk_sgs_vgl_dmo_ids</text>
<text text-anchor="start" x="483.64" y="-222.2" font-family="Roboto Light" font-weight="bold" font-size="11.00">List of a joinable attributes</text>
<text text-anchor="start" x="455.64" y="-207.2" font-family="Roboto Light" font-size="11.00">sk_sgs_vgl_sguds.gku_municipality_id</text>
<text text-anchor="start" x="486.14" y="-193.2" font-family="Roboto Light" font-size="11.00">sk_sgs_vgl_sguds.dmo_id</text>
<polygon fill="none" stroke="#336791" points="453.64,-188 453.64,-326 647.64,-326 647.64,-188 453.64,-188"/>
</g>
</g>
</svg>
